<?xml version="1.0" encoding="UTF-8"?> <svg xmlns="http://www.w3.org/2000/svg" xmlns:xlink="http://www.w3.org/1999/xlink" width="436.555" height="452.695" viewBox="0 0 436.555 452.695"><defs><style>.a{fill:none;}.b{fill:url(#a);}.c{fill:url(#b);}.d{fill:url(#c);}.e{fill:#bfc8d6;}.f{fill:url(#d);}.g{fill:url(#e);}.h,.p{fill:#fff;}.h{opacity:0.48;}.ba,.bj,.h{mix-blend-mode:soft-light;}.aq,.ay,.ba,.bf,.bj,.h{isolation:isolate;}.i{fill:url(#f);}.j{fill:#d8dee8;}.k{fill:#f4f7fa;}.l{fill:#97a6b7;}.m{fill:url(#g);}.n{fill:url(#h);}.o{opacity:0.2;}.q{fill:url(#i);}.r{fill:url(#j);}.s{fill:url(#k);}.t{fill:url(#l);}.u{fill:url(#m);}.v{fill:url(#n);}.w{fill:url(#o);}.x{fill:url(#p);}.y{fill:#fcb048;}.z{fill:url(#q);}.aa{fill:url(#r);}.ab{fill:url(#s);}.ac{fill:url(#t);}.ad{fill:url(#u);}.ae{fill:url(#x);}.af{fill:url(#y);}.ag{fill:url(#ac);}.ah{fill:url(#ag);}.ai{fill:url(#ak);}.aj{fill:url(#ao);}.ak{fill:url(#ar);}.al{fill:url(#as);}.am{fill:url(#at);}.an{fill:url(#au);}.ao{fill:url(#av);}.ap{fill:url(#aw);}.aq,.ay,.bf{opacity:0.3;mix-blend-mode:multiply;}.aq{fill:url(#ax);}.ar{fill:url(#ay);}.as{fill:url(#az);}.at{fill:url(#ba);}.au{fill:url(#bb);}.av{fill:url(#bc);}.aw{fill:url(#bd);}.ax{fill:url(#be);}.ay{fill:url(#bf);}.az{fill:url(#bg);}.ba{fill:url(#bh);}.bb{fill:url(#bi);}.bc{fill:url(#bj);}.bd{fill:url(#bk);}.be{fill:url(#bl);}.bf{fill:url(#bm);}.bg{opacity:0.15;fill:url(#bn);}.bh{fill:url(#bo);}.bi{clip-path:url(#bp);}.bj{opacity:0.7;}.bk{clip-path:url(#br);}.bl{fill:#fcfdfe;}.bm{clip-path:url(#bt);}.bn{clip-path:url(#bu);}.bo{clip-path:url(#bv);}.bp{clip-path:url(#bx);}.bq{fill:url(#ck);}.br{fill:url(#cl);}</style><linearGradient id="a" x1="0.645" y1="0.128" x2="0.293" y2="1.428" gradientUnits="objectBoundingBox"><stop offset="0" stop-color="#ff9085"></stop><stop offset="1" stop-color="#fb6fbb"></stop></linearGradient><linearGradient id="b" y1="0.5" x2="1" y2="0.5" gradientUnits="objectBoundingBox"><stop offset="0" stop-color="#ffc444"></stop><stop offset="0.996" stop-color="#f36f56"></stop></linearGradient><linearGradient id="c" x1="0.636" y1="-0.001" x2="0.297" y2="1.499" gradientUnits="objectBoundingBox"><stop offset="0.004" stop-color="#e38ddd"></stop><stop offset="1" stop-color="#9571f6"></stop></linearGradient><linearGradient id="d" y1="0.5" x2="1" y2="0.5" gradientUnits="objectBoundingBox"><stop offset="0" stop-color="#444b8c"></stop><stop offset="0.996" stop-color="#26264f"></stop></linearGradient><linearGradient id="e" x1="0" y1="0.5" x2="1" y2="0.5" xlink:href="#c"></linearGradient><linearGradient id="f" y1="0.5" x2="1" y2="0.5" gradientUnits="objectBoundingBox"><stop offset="0.494" stop-color="#ebeff2"></stop><stop offset="1" stop-color="#fff"></stop></linearGradient><linearGradient id="g" x1="-1.291" y1="0.344" x2="1.407" y2="0.532" gradientUnits="objectBoundingBox"><stop offset="0" stop-color="#d8dee8"></stop><stop offset="1" stop-color="#fff"></stop></linearGradient><linearGradient id="h" x1="-0.469" y1="0.569" x2="1.465" y2="0.407" xlink:href="#g"></linearGradient><linearGradient id="i" x1="1.135" y1="-0.094" x2="-0.447" y2="1.361" xlink:href="#b"></linearGradient><linearGradient id="j" x1="0.796" y1="-0.157" x2="-0.114" y2="1.533" xlink:href="#b"></linearGradient><linearGradient id="k" x1="0.058" y1="-0.21" x2="0.058" y2="1.944" xlink:href="#c"></linearGradient><linearGradient id="l" x1="-1.1" y1="-0.12" x2="5.287" y2="3.288" xlink:href="#c"></linearGradient><linearGradient id="m" x1="0.072" y1="-0.212" x2="0.072" y2="1.904" xlink:href="#c"></linearGradient><linearGradient id="n" x1="-0.085" y1="0.5" x2="1.065" y2="0.5" gradientUnits="objectBoundingBox"><stop offset="0" stop-color="#fcb148"></stop><stop offset="0.052" stop-color="#fdb946"></stop><stop offset="0.142" stop-color="#fec144"></stop><stop offset="0.318" stop-color="#ffc444"></stop><stop offset="0.485" stop-color="#fdb946"></stop><stop offset="0.775" stop-color="#f99c4c"></stop><stop offset="0.866" stop-color="#f8924f"></stop><stop offset="1" stop-color="#f8924f"></stop></linearGradient><linearGradient id="o" x1="0.495" y1="0.179" x2="0.556" y2="4.091" gradientUnits="objectBoundingBox"><stop offset="0" stop-color="#ffdb44"></stop><stop offset="1" stop-color="#feef06"></stop></linearGradient><linearGradient id="p" x1="0.492" y1="-0.777" x2="0.511" y2="1.295" xlink:href="#o"></linearGradient><linearGradient id="q" x1="4.067" y1="-0.441" x2="4.086" y2="1.991" gradientUnits="objectBoundingBox"><stop offset="0.004" stop-color="#f36f56"></stop><stop offset="0.306" stop-color="#f99c4c"></stop><stop offset="0.545" stop-color="#fdb946"></stop><stop offset="0.682" stop-color="#ffc444"></stop><stop offset="0.804" stop-color="#fec144"></stop><stop offset="0.867" stop-color="#fdb946"></stop><stop offset="0.916" stop-color="#fbac49"></stop><stop offset="0.958" stop-color="#f8994d"></stop><stop offset="0.995" stop-color="#f58152"></stop><stop offset="1" stop-color="#f57e53"></stop></linearGradient><linearGradient id="r" x1="-0.085" y1="0.5" x2="1.065" y2="0.5" xlink:href="#n"></linearGradient><linearGradient id="s" x1="0.495" y1="0.179" x2="0.556" y2="4.091" xlink:href="#o"></linearGradient><linearGradient id="t" x1="0.492" y1="-0.777" x2="0.511" y2="1.296" xlink:href="#o"></linearGradient><linearGradient id="u" x1="4.349" y1="3.205" x2="4.368" y2="5.636" xlink:href="#q"></linearGradient><linearGradient id="x" x1="0.492" y1="-0.777" x2="0.511" y2="1.295" xlink:href="#o"></linearGradient><linearGradient id="y" x1="4.106" y1="6.84" x2="4.124" y2="9.272" xlink:href="#q"></linearGradient><linearGradient id="ac" x1="3.958" y1="10.486" x2="3.977" y2="12.918" xlink:href="#q"></linearGradient><linearGradient id="ag" x1="4.067" y1="14.42" x2="4.086" y2="16.851" xlink:href="#q"></linearGradient><linearGradient id="ak" x1="4.349" y1="18.065" x2="4.368" y2="20.497" xlink:href="#q"></linearGradient><linearGradient id="ao" x1="4.106" y1="21.701" x2="4.124" y2="24.132" xlink:href="#q"></linearGradient><linearGradient id="ar" x1="0.492" y1="-0.777" x2="0.511" y2="1.296" xlink:href="#o"></linearGradient><linearGradient id="as" x1="4.232" y1="25.347" x2="4.251" y2="27.778" xlink:href="#q"></linearGradient><linearGradient id="at" x1="0.329" y1="0.554" x2="-0.255" y2="0.738" xlink:href="#n"></linearGradient><linearGradient id="au" x1="0.727" y1="0.007" x2="0.207" y2="1.135" xlink:href="#o"></linearGradient><linearGradient id="av" x1="0.636" y1="1.231" x2="0.531" y2="0.666" xlink:href="#n"></linearGradient><linearGradient id="aw" x1="0.409" y1="0.31" x2="0.858" y2="1.247" xlink:href="#n"></linearGradient><linearGradient id="ax" x1="0.464" y1="0.369" x2="1.215" y2="1.306" xlink:href="#n"></linearGradient><linearGradient id="ay" x1="-4.74" y1="-0.046" x2="-3.552" y2="1.189" gradientUnits="objectBoundingBox"><stop offset="0" stop-color="#311944"></stop><stop offset="1" stop-color="#6b3976"></stop></linearGradient><linearGradient id="az" x1="-41.75" y1="0.5" x2="-40.75" y2="0.5" xlink:href="#ay"></linearGradient><linearGradient id="ba" x1="-65.745" y1="1.578" x2="-63.371" y2="-5.324" xlink:href="#b"></linearGradient><linearGradient id="bb" x1="-68.38" y1="0.5" x2="-67.38" y2="0.5" xlink:href="#ay"></linearGradient><linearGradient id="bc" x1="-105.831" y1="3.065" x2="-103.331" y2="-0.811" xlink:href="#b"></linearGradient><linearGradient id="bd" x1="-18.894" y1="0.092" x2="-18.537" y2="1.42" gradientUnits="objectBoundingBox"><stop offset="0" stop-color="#ab316d"></stop><stop offset="1" stop-color="#792d3d"></stop></linearGradient><linearGradient id="be" x1="-6.307" y1="1.066" x2="-6.114" y2="0.491" xlink:href="#bd"></linearGradient><linearGradient id="bf" x1="-6.616" y1="2.203" x2="-6.414" y2="1.014" xlink:href="#bd"></linearGradient><linearGradient id="bg" x1="-6.759" y1="0.004" x2="-6.607" y2="2.181" xlink:href="#bd"></linearGradient><linearGradient id="bh" x1="1.205" y1="25.815" x2="0.185" y2="-10.793" xlink:href="#a"></linearGradient><linearGradient id="bi" x1="46.402" y1="-3.743" x2="46.453" y2="-5.505" xlink:href="#b"></linearGradient><linearGradient id="bj" x1="91.229" y1="-7.021" x2="91.186" y2="-3.85" xlink:href="#b"></linearGradient><linearGradient id="bk" x1="6.919" y1="0.5" x2="7.919" y2="0.5" gradientUnits="objectBoundingBox"><stop offset="0" stop-color="#40447e"></stop><stop offset="0.996" stop-color="#3c3b6b"></stop></linearGradient><linearGradient id="bl" x1="4.147" y1="-0.074" x2="4.625" y2="0.951" xlink:href="#bk"></linearGradient><linearGradient id="bm" x1="5.248" y1="-0.105" x2="5.852" y2="0.95" xlink:href="#bk"></linearGradient><linearGradient id="bn" x1="0.586" y1="-0.292" x2="0.361" y2="1.816" gradientUnits="objectBoundingBox"><stop offset="0" stop-color="#aa80f9"></stop><stop offset="0.996" stop-color="#6165d7"></stop></linearGradient><linearGradient id="bo" x1="0.744" y1="0.142" x2="-0.259" y2="2.239" xlink:href="#b"></linearGradient><clipPath id="bp"><path class="a" d="M850.124,862.353c7.442-4.638,23.187-11,25.213-20.962,2.309-11.356-7.567-12.455-4.777-20.568,4.362-12.681.276-26.316-13.138-27.616-13.238-1.284-25.91,18.16-27.372,47.816-3.458,21.156-6.912,23.6-16.317,27.954-6.588,3.049-26.156,7.125-27.356,19.388S822.142,879.791,850.124,862.353Z" transform="translate(-786.35 -793.146)"></path></clipPath><clipPath id="br"><path class="b" d="M793.889,885.421a77.148,77.148,0,0,1,8.592,8.252c6.906,1.058,14.209,2.648,21.161,1.755a14.3,14.3,0,0,0,5.565-2.027,21.742,21.742,0,0,0,3.414-2.4c4.167-3.685,4.157-11.235,6.3-16.511,1.422-3.506,4.811-7.058,12.968-12.141,7.442-4.638,23.187-10.995,25.213-20.962,2.309-11.355-7.567-12.455-4.777-20.568,4.362-12.681.276-26.316-13.138-27.616-13.239-1.284-25.91,18.16-27.371,47.816-3.458,21.156-6.912,23.6-16.318,27.954-5.4,2.5-19.509,5.688-25.091,13.5C791.7,883.462,792.921,884.623,793.889,885.421Z" transform="translate(-790.403 -793.146)"></path></clipPath><clipPath id="bt"><path class="c" d="M788.35,894.19a6.949,6.949,0,0,0-2.451,3.827c-1.053,5,5.356,10.068,6.867,11.263,8.714,6.9,20.458,5.337,24.52,4.608,4.492-2.37,9.233-6.306,6.05-12.279-3.594-6.745-7.292-10.363-1.093-17.424s6.634-14.826.164-20.38c-6.809-5.844-3.718-19.5-11.748-21.781-13.994-3.978-20.183,18.9-13.265,34.052S794.021,889,788.35,894.19Z" transform="translate(-785.783 -841.569)"></path></clipPath><clipPath id="bu"><path class="a" d="M812.882,915.85c4.444-1.78,14.706-6.138,10.389-14.24-3.594-6.745-7.292-10.362-1.093-17.423s6.634-14.826.164-20.38c-6.809-5.844-3.718-19.5-11.748-21.781-13.993-3.978-20.183,18.9-13.265,34.052S793.956,889,788.285,894.19c-7.742,7.089,3.95,15.4,3.744,20.964C791.867,919.513,809.291,917.287,812.882,915.85Z" transform="translate(-785.633 -841.569)"></path></clipPath><clipPath id="bv"><path class="a" d="M846.172,940.54c6.324,1.358,14.947.24,15-4.635.085-7.994,11.612-10.26,22.091-8.167,10.255,2.048,19.814-15-1.975-21.47-13.012-3.865-20.165,7.262-25.113,12.022s-12.982-1.507-15.857,7.076C837.86,932.7,841.926,939.627,846.172,940.54Z" transform="translate(-839.573 -905.466)"></path></clipPath><clipPath id="bx"><path class="d" d="M879.158,906.267c-13.012-3.865-20.165,7.261-25.113,12.021s-12.982-1.507-15.857,7.076c-1.591,4.751-1.8,9.627-3.518,12.707q.818.524,1.634,1.051l.159.09c.775.442,1.558.846,2.365,1.219-.179-.094.753.282.852.315.465.152.935.29,1.408.416a31.525,31.525,0,0,0,11.53,1.142c3.071-.669,6.745-2.04,8.28-5.159.875-1.777.23-2.446.893-3.842,2.056-4.328,9.71-7.49,19.343-5.567C891.388,929.786,900.947,912.739,879.158,906.267Z" transform="translate(-834.67 -905.467)"></path></clipPath><linearGradient id="ck" x1="0.636" y1="1.231" x2="0.531" y2="0.666" xlink:href="#n"></linearGradient><linearGradient id="cl" x1="0.409" y1="0.31" x2="0.858" y2="1.247" xlink:href="#n"></linearGradient></defs><g transform="translate(-272.449 -201.082)"><g transform="translate(272.449 334.906)"><path class="e" d="M715.831,817.078,290.637,813.4v10.875c0,2.951,1.854,5.461,4.366,5.908L415.235,851.6a16.632,16.632,0,0,0,4.314.2l291.661-24.416c2.6-.218,4.621-2.736,4.621-5.768Z" transform="translate(-280.346 -600.756)"></path><path class="e" d="M551.462,636.485,281.217,656.379a8.191,8.191,0,0,1-8.768-8.45V446.685a8.94,8.94,0,0,1,8.768-9.1H551.462c3.984,0,7.205,3.681,7.205,8.221V627.732C558.667,632.273,555.446,636.192,551.462,636.485Z" transform="translate(-272.449 -437.59)"></path><path class="f" d="M559.078,636.485,288.833,656.379a8.191,8.191,0,0,1-8.768-8.45V446.685a8.94,8.94,0,0,1,8.768-9.1H559.078c3.984,0,7.205,3.681,7.205,8.221V627.732C566.283,632.273,563.062,636.192,559.078,636.485Z" transform="translate(-275.756 -437.59)"></path><path class="g" d="M559.679,632.624,307.974,649.9a6.715,6.715,0,0,1-7.133-6.935V466.78a7.325,7.325,0,0,1,7.133-7.456l251.705-1.085c3.286-.014,5.945,3,5.945,6.737V625.453C565.624,629.188,562.966,632.4,559.679,632.624Z" transform="translate(-284.776 -446.555)"></path><path class="h" d="M288.832,656.379,557.71,636.585l1.368-.1a7.255,7.255,0,0,0,4.76-2.409c-19.349-1.059-31.367-7.925-39.119-15.02-15.568-14.248-12.868-28.3-29.657-37.667-20.94-11.685-37.4,3.121-53.3-11.487-9.633-8.856-4.9-15.461-16.758-28.7-13.13-14.659-21.677-9.731-34.872-22.924-16.684-16.682-8.34-29.66-22.71-41.637-17.434-14.529-36.236-1.081-52.832-15.016-7.158-6.01-11.085-14.747-13.136-24.039H288.833a8.94,8.94,0,0,0-8.768,9.1V647.929A8.191,8.191,0,0,0,288.832,656.379Z" transform="translate(-275.756 -437.59)"></path><path class="i" d="M576.4,787.1l-285.764,20.94,124.6,22.191a16.661,16.661,0,0,0,4.314.2l296.282-24.8L580.946,787.246A21.843,21.843,0,0,0,576.4,787.1Z" transform="translate(-280.346 -589.313)"></path><path class="j" d="M364.329,810.9l237.907-17.693,73.63,9.957L440.008,822.076Z" transform="translate(-312.34 -591.988)"></path><g transform="translate(42.703 32.49)"><path class="k" d="M350.037,524.327,402.23,495.01l50.213,28.307Z" transform="translate(-348.838 -495.01)"></path><g transform="translate(5.488 30.65)"><g transform="translate(0 0.911)"><path class="k" d="M369.336,552.136a1.365,1.365,0,0,1-1.352,1.381l-8.961.111a1.382,1.382,0,0,1-1.406-1.354h0a1.374,1.374,0,0,1,1.366-1.387l8.962-.1a1.372,1.372,0,0,1,1.391,1.348Z" transform="translate(-357.617 -550.788)"></path><path class="k" d="M370.559,638.175a1.4,1.4,0,0,1-1.35,1.411l-8.945.334a1.339,1.339,0,0,1-1.4-1.316h0a1.413,1.413,0,0,1,1.364-1.417l8.946-.321a1.329,1.329,0,0,1,1.388,1.31Z" transform="translate(-358.157 -588.16)"></path><g transform="translate(0.765 4.095)"><path class="k" d="M362.405,601.59l-2.813.067-.624-43.45,2.817-.023Z" transform="translate(-358.969 -558.094)"></path><path class="k" d="M369.789,601.431l-2.112.063-.616-43.37,2.115-.018Z" transform="translate(-362.482 -558.061)"></path><path class="k" d="M375.392,601.27l-2.113.075-.611-43.293,2.117-.028Z" transform="translate(-364.917 -558.025)"></path></g></g><g transform="translate(28.366 0.6)"><path class="k" d="M419.135,551.567a1.338,1.338,0,0,1-1.315,1.361l-8.706.109a1.351,1.351,0,0,1-1.365-1.335h0a1.346,1.346,0,0,1,1.329-1.366l8.707-.1a1.342,1.342,0,0,1,1.351,1.329Z" transform="translate(-407.749 -550.238)"></path><path class="k" d="M420.267,636.379a1.374,1.374,0,0,1-1.313,1.389l-8.691.324a1.308,1.308,0,0,1-1.362-1.3h0a1.383,1.383,0,0,1,1.326-1.4l8.692-.312a1.3,1.3,0,0,1,1.348,1.292Z" transform="translate(-408.249 -587.076)"></path><g transform="translate(0.97 4.025)"><path class="k" d="M418.861,600.145l-2.481.093-.572-42.758,2.485-.037Z" transform="translate(-412.218 -557.39)"></path><path class="k" d="M425.4,599.972l-2.128.07-.566-42.667,2.132-.025Z" transform="translate(-415.214 -557.351)"></path><path class="k" d="M412.157,600.172l-2.128.069-.566-42.667,2.132-.025Z" transform="translate(-409.463 -557.437)"></path></g></g><g transform="translate(56.256 0.294)"><path class="k" d="M468.1,551.007a1.31,1.31,0,0,1-1.278,1.341l-8.459.105a1.32,1.32,0,0,1-1.325-1.315h0a1.318,1.318,0,0,1,1.291-1.347l8.46-.094a1.312,1.312,0,0,1,1.311,1.31Z" transform="translate(-457.039 -549.697)"></path><path class="k" d="M469.146,634.612a1.348,1.348,0,0,1-1.276,1.369l-8.444.315a1.279,1.279,0,0,1-1.323-1.279h0a1.356,1.356,0,0,1,1.289-1.376l8.445-.3a1.271,1.271,0,0,1,1.309,1.274Z" transform="translate(-457.501 -586.011)"></path><g transform="translate(1.534 3.981)"><path class="k" d="M468.094,598.89l-2.142.083-.527-42.139,2.145-.032Z" transform="translate(-462.214 -556.763)"></path><path class="k" d="M462.419,598.975l-2.142.083-.527-42.138,2.145-.032Z" transform="translate(-459.75 -556.8)"></path><path class="k" d="M474.053,598.749l-1.786.061-.521-42.057,1.789-.02Z" transform="translate(-464.958 -556.732)"></path></g></g><g transform="translate(83.039)"><path class="k" d="M515.128,550.47a1.284,1.284,0,0,1-1.244,1.322l-8.225.1a1.292,1.292,0,0,1-1.287-1.3h0a1.292,1.292,0,0,1,1.256-1.328l8.225-.091a1.284,1.284,0,0,1,1.274,1.292Z" transform="translate(-504.372 -549.178)"></path><path class="k" d="M516.092,632.914a1.322,1.322,0,0,1-1.242,1.35l-8.211.306a1.252,1.252,0,0,1-1.285-1.262h0a1.328,1.328,0,0,1,1.254-1.356l8.212-.3a1.244,1.244,0,0,1,1.272,1.258Z" transform="translate(-504.798 -584.987)"></path><g transform="translate(1.621 3.916)"><path class="k" d="M509.523,597.838l-1.8.059-.491-41.618,1.8-.023Z" transform="translate(-507.238 -556.167)"></path><path class="k" d="M514.762,597.688l-1.8.067-.486-41.547,1.8-.025Z" transform="translate(-509.513 -556.135)"></path><path class="k" d="M520.051,597.537l-2.158.078-.482-41.487,2.161-.029Z" transform="translate(-511.655 -556.098)"></path></g></g></g><path class="k" d="M453.012,647.321,356,651.455l-.118-8.208,97.04-3.732Z" transform="translate(-351.376 -557.749)"></path><path class="k" d="M453.513,649.77l-105.53,4.485-.065-4.455,105.548-4.248Z" transform="translate(-347.918 -560.37)"></path><g transform="translate(122.438 10.642)"><path class="k" d="M650.533,522.131l-86.134.451-.094-8.717,86.16-.047Z" transform="translate(-564.304 -513.818)"></path><path class="k" d="M613.839,576.865,565,577.915l-.077-7.089,48.848-.865Z" transform="translate(-564.574 -538.194)"></path><path class="k" d="M650.536,599.676l-85.259,2.509-.073-6.761,85.279-2.2Z" transform="translate(-564.695 -548.294)"></path><path class="k" d="M650.787,626.032l-85.212,3.23-.077-7.076,85.234-2.906Z" transform="translate(-564.823 -559.606)"></path></g></g></g><g transform="translate(410.508 366.325)"><path class="l" d="M793.484,787.638l-.367-30.425-254.143,2.719.364,30.164,55.335,12.375Z" transform="translate(-526.225 -607.78)"></path><g transform="translate(265.485 79.696)"><path class="j" d="M985.636,634.074l.046,3.8,16.927-.049-3.792-3.863Z" transform="translate(-985.636 -633.966)"></path></g><g transform="translate(11.914 82.819)"><path class="m" d="M593.116,720.623l-54.774-11.094-.844-69.911,54.638-.132Z" transform="translate(-537.498 -639.486)"></path></g><path class="n" d="M846.171,576.836l-12.608.4.848,70.26-126.533,8.756-52.415,3.627-20.422,1.413-.979-81.137,87.609-26.106,51.8-51.224Zm-35.149,64.756-.84-69.608-77.179.8.889,73.7,77.13-4.895Z" transform="translate(-567.508 -497.331)"></path><g class="o" transform="translate(53.246 3.895)"><path class="j" d="M837.228,575.869l-71.962-73.61L763.06,500l-2.136,2.1-51.5,50.711-86.961,25.63-11.925,3.514.022,1.842,13.342-.161-.014-1.191L711.2,556.715l52.1-51.223,68.943,70.437Z" transform="translate(-610.543 -500.003)"></path></g><g transform="translate(53.198 0)"><path class="p" d="M762.977,493.119l2.206,2.256L838.016,569.8l1.88,1.919.06,4.934-.237.025-3.77-3.843-72.732-74.227-52.1,51.223-86.542,26.8-14.049,4.08-.068-5.631,11.925-3.514,86.961-25.631,51.5-50.711Z" transform="translate(-610.46 -493.119)"></path></g><g transform="translate(164.293 73.546)"><path class="p" d="M886.011,626.781l.818,67.711-75.479,4.735-.864-71.606Zm-3.27,61.307-.686-56.843-18.151.263.7,57.627,18.141-1.046Zm-23.068,1.33-.7-57.839-18.794.272.708,58.651,18.784-1.083ZM835.783,690.8l-.711-58.871-19.475.281.72,59.712,19.465-1.122Z" transform="translate(-808.4 -624.697)"></path><path class="p" d="M807.714,699.821l-.915-75.838,79.649-.884.866,71.73Zm3.258-71.761.813,67.374,71.359-4.476-.031-2.518-22.148,1.276-.746-61.84,22.159-.32,0-.29Zm53.419,3.88.644,53.412,14.02-.809-.637-52.807ZM812.681,692.5l-.771-63.926,23.6-.341.759,62.907Zm3.4-59.863.67,55.5,15.344-.884-.662-54.836Zm21.171,58.446-.759-62.865,22.917-.331.746,61.875Zm3.414-58.8.657,54.436,14.664-.845-.649-53.8Z" transform="translate(-806.799 -623.098)"></path></g><g transform="translate(88.945)"><path class="q" d="M790.407,493.118l-2.136,2.1-51.5,50.71L673.636,550l46.993-44.4,1.96-1.848Z" transform="translate(-673.636 -493.118)"></path></g><path class="k" d="M706.153,701.274,732.9,700.6l.7,59.18-26.717,1.841Z" transform="translate(-598.808 -583.203)"></path><g transform="translate(102.433 119.55)"><path class="l" d="M698.141,760.456l-.668-55.344,29.717-.712.645,53.44Z" transform="translate(-697.473 -704.4)"></path></g><path class="j" d="M671.622,757.806l-.832-68.93,52.352-1.162.8,66.081-5.7.393-.713-59.059-26.73.73.731,60.574Z" transform="translate(-583.455 -577.606)"></path><g transform="translate(0 52.813)"><path class="r" d="M668.526,586.455l-86.962,25.631L569.639,615.6l-53.2.254,10.639-3.028,78.306-22.3Z" transform="translate(-516.442 -586.455)"></path></g><g transform="translate(0.001 81.958)"><path class="p" d="M569.708,643.594l-53.207-.532-.058-4.846,53.2-.253Z" transform="translate(-516.443 -637.963)"></path></g><g transform="translate(220.165 80.532)"><path class="s" d="M922.982,635.444l.676,55.992-17.43,1-.685-56.733Z" transform="translate(-905.543 -635.444)"></path></g><g transform="translate(171.882 81.228)"><path class="t" d="M838.924,636.673l.7,57.99-18.7,1.072-.709-58.786Z" transform="translate(-820.21 -636.673)"></path></g><g transform="translate(196.452 80.874)"><path class="u" d="M881.694,636.048l.688,56.973-18.051,1.035-.7-57.741Z" transform="translate(-863.635 -636.048)"></path></g><path class="k" d="M672.259,808.168l52.314-4.313L736.967,817.4l-64.552,3.729Z" transform="translate(-584.093 -628.03)"></path></g><g transform="translate(302.36 444.043)"><g transform="translate(18.916 108.717)"><g transform="translate(12.136 71.936)"><path class="v" d="M380.232,959.752v9.683c0,3.128,19.545,5.665,43.654,5.665s43.654-2.537,43.654-5.665v-9.683Z" transform="translate(-380.207 -954.087)"></path><path class="w" d="M467.54,955.405c0,3.129-19.544,5.665-43.654,5.665s-43.654-2.536-43.654-5.665,19.545-5.665,43.654-5.665S467.54,952.277,467.54,955.405Z" transform="translate(-380.207 -949.74)"></path><path class="x" d="M423.867,965.415c-21.352,0-43.679-2.04-43.679-5.973,0-.216.077-.6.293-.6s.123.3.123.513c0,2.495,17.768,5.274,43.263,5.274s43.263-2.779,43.263-5.274c0-.216.037-.418.253-.418s.164.288.164.5C467.547,963.378,445.219,965.415,423.867,965.415Z" transform="translate(-380.188 -953.694)"></path><g transform="translate(16.18 3.519)"><path class="y" d="M432.157,958.421c.428-.3.884-.588,1.372-.878a8.646,8.646,0,0,1,1.875-.781,17.922,17.922,0,0,1,2.878-.569,36.43,36.43,0,0,1,4.31-.233q2.531-.013,4.751.161a32.372,32.372,0,0,1,3.907.517,12.106,12.106,0,0,1,2.743.851,2.171,2.171,0,0,1,1.254,1.162l4.915.05a4.842,4.842,0,0,1,.942.087c.275.056.408.127.408.213l0,.4-6.319-.061a3.185,3.185,0,0,1-1.694,1.36,17.166,17.166,0,0,1-3.465,1.069l-2.3-.32a2.664,2.664,0,0,1-.508-.12c-.133-.049-.2-.1-.2-.158q0-.117.534-.266t1.205-.371a12.172,12.172,0,0,0,1.319-.522,1.791,1.791,0,0,0,.865-.719l-14.915-.148a14.138,14.138,0,0,1-1.317.85,8.563,8.563,0,0,1-1.935.751,20.273,20.273,0,0,1-3,.543,42.615,42.615,0,0,1-4.526.221c-1.367.006-2.7-.045-4-.155a27.517,27.517,0,0,1-3.473-.5,10.832,10.832,0,0,1-2.491-.816c-.646-.324-1.009-.7-1.084-1.117l-4.047-.042a5.281,5.281,0,0,1-.956-.084c-.279-.054-.421-.126-.422-.216l0-.4,5.533.053a2.97,2.97,0,0,1,1.512-1.115,17.35,17.35,0,0,1,2.808-.845l1.853.255c.562.079.842.171.842.278,0,.058-.114.128-.346.213s-.512.187-.831.3a7.685,7.685,0,0,0-.922.416,1.961,1.961,0,0,0-.674.54Zm-13.65.552a1.471,1.471,0,0,0,.735.686,5.9,5.9,0,0,0,1.406.475,14.332,14.332,0,0,0,1.894.272q1.057.087,2.209.081a22.947,22.947,0,0,0,2.345-.115,13.6,13.6,0,0,0,1.754-.3,8.188,8.188,0,0,0,1.32-.436,7.337,7.337,0,0,0,1.008-.539Zm32.47-.362a1.52,1.52,0,0,0-.8-.707,7.212,7.212,0,0,0-1.617-.51,17.886,17.886,0,0,0-2.292-.308q-1.3-.1-2.881-.093a22.133,22.133,0,0,0-2.414.125,12.488,12.488,0,0,0-1.754.319,6.4,6.4,0,0,0-1.26.466,8.972,8.972,0,0,0-.966.569Z" transform="translate(-408.783 -955.96)"></path></g><path class="z" d="M424.419,950.824c-19.465,0-39.732,1.713-42.973,5.029a3.938,3.938,0,0,1,.354.373c2.732-2.3,19.467-4.619,42.619-4.619,23.746,0,40.749,2.438,42.809,4.8a3.956,3.956,0,0,1,.327-.37C464.877,952.6,444.229,950.824,424.419,950.824Z" transform="translate(-380.734 -950.211)"></path></g><g transform="translate(0 61.765)"><path class="aa" d="M358.785,941.778v9.682c0,3.129,19.545,5.665,43.654,5.665s43.654-2.536,43.654-5.665v-9.682Z" transform="translate(-358.76 -936.113)"></path><path class="ab" d="M446.093,937.431c0,3.128-19.545,5.665-43.654,5.665s-43.654-2.537-43.654-5.665,19.545-5.665,43.654-5.665S446.093,934.3,446.093,937.431Z" transform="translate(-358.76 -931.766)"></path><path class="ac" d="M402.419,947.44c-21.352,0-43.679-2.039-43.679-5.973,0-.216.077-.6.293-.6s.123.3.123.513c0,2.495,17.768,5.274,43.263,5.274s43.263-2.779,43.263-5.274c0-.216.037-.418.253-.418s.164.288.164.5C446.1,945.4,423.771,947.44,402.419,947.44Z" transform="translate(-358.74 -935.72)"></path><g transform="translate(16.18 3.519)"><path class="y" d="M410.709,940.447c.428-.3.884-.588,1.372-.878a8.631,8.631,0,0,1,1.875-.782,17.929,17.929,0,0,1,2.878-.569,36.381,36.381,0,0,1,4.311-.233q2.53-.012,4.751.161a32.378,32.378,0,0,1,3.907.518,12.11,12.11,0,0,1,2.743.851,2.17,2.17,0,0,1,1.254,1.162l4.915.05a4.81,4.81,0,0,1,.942.087c.274.056.407.127.408.212l0,.405-6.319-.061a3.187,3.187,0,0,1-1.695,1.36,17.119,17.119,0,0,1-3.465,1.069l-2.3-.32a2.7,2.7,0,0,1-.508-.12c-.132-.048-.2-.1-.2-.158q0-.117.534-.267t1.205-.371a12.161,12.161,0,0,0,1.318-.521,1.788,1.788,0,0,0,.865-.719l-14.915-.148a14.143,14.143,0,0,1-1.317.85,8.637,8.637,0,0,1-1.935.751,20.281,20.281,0,0,1-3,.542,42.489,42.489,0,0,1-4.526.221c-1.367.007-2.7-.045-4-.155a27.42,27.42,0,0,1-3.473-.495,10.855,10.855,0,0,1-2.491-.816c-.646-.324-1.009-.7-1.085-1.117l-4.046-.042a5.272,5.272,0,0,1-.956-.084c-.279-.054-.421-.126-.422-.215l0-.405,5.533.053a2.972,2.972,0,0,1,1.512-1.115,17.313,17.313,0,0,1,2.808-.845l1.853.255c.563.079.842.172.842.278,0,.057-.113.128-.346.213s-.511.187-.831.3a7.508,7.508,0,0,0-.921.416,1.956,1.956,0,0,0-.674.54Zm-13.65.552a1.468,1.468,0,0,0,.735.686,5.848,5.848,0,0,0,1.406.475,14.346,14.346,0,0,0,1.894.273q1.057.087,2.208.081a22.941,22.941,0,0,0,2.345-.116,13.62,13.62,0,0,0,1.755-.3,8.236,8.236,0,0,0,1.319-.436,7.359,7.359,0,0,0,1.008-.539Zm32.47-.362a1.521,1.521,0,0,0-.8-.707,7.237,7.237,0,0,0-1.617-.51,17.889,17.889,0,0,0-2.292-.308q-1.3-.1-2.881-.093a22.111,22.111,0,0,0-2.414.126,12.409,12.409,0,0,0-1.754.319,6.34,6.34,0,0,0-1.26.466,8.872,8.872,0,0,0-.966.569Z" transform="translate(-387.335 -937.985)"></path></g><path class="ad" d="M402.972,932.85c-19.465,0-39.732,1.713-42.973,5.028a3.992,3.992,0,0,1,.354.373c2.732-2.3,19.467-4.62,42.619-4.62,23.746,0,40.749,2.439,42.808,4.8a3.98,3.98,0,0,1,.327-.37C443.43,934.626,422.782,932.85,402.972,932.85Z" transform="translate(-359.287 -932.237)"></path></g><g transform="translate(10.471 51.625)"><path class="v" d="M377.291,923.856v9.682c0,3.129,19.545,5.665,43.654,5.665s43.654-2.536,43.654-5.665v-9.682Z" transform="translate(-377.266 -918.191)"></path><ellipse class="ab" cx="43.654" cy="5.665" rx="43.654" ry="5.665" transform="translate(0.026)"></ellipse><path class="ae" d="M420.925,929.519c-21.352,0-43.679-2.04-43.679-5.974,0-.216.078-.6.293-.6s.123.3.123.513c0,2.495,17.768,5.274,43.263,5.274s43.263-2.779,43.263-5.274c0-.216.037-.418.253-.418s.164.288.164.5C464.605,927.482,442.278,929.519,420.925,929.519Z" transform="translate(-377.246 -917.798)"></path><g transform="translate(16.18 3.519)"><path class="y" d="M429.215,922.525c.428-.3.884-.588,1.372-.878a8.646,8.646,0,0,1,1.875-.781,17.883,17.883,0,0,1,2.878-.569,36.582,36.582,0,0,1,4.311-.233q2.53-.013,4.751.161a32.388,32.388,0,0,1,3.907.517,12.11,12.11,0,0,1,2.743.851,2.17,2.17,0,0,1,1.254,1.162l4.915.05a4.847,4.847,0,0,1,.942.087c.275.056.407.127.408.213l0,.4-6.319-.061a3.182,3.182,0,0,1-1.695,1.36,17.154,17.154,0,0,1-3.465,1.069l-2.3-.32a2.633,2.633,0,0,1-.508-.12c-.132-.048-.2-.1-.2-.158q0-.117.534-.266t1.205-.371a12.213,12.213,0,0,0,1.319-.522,1.791,1.791,0,0,0,.865-.719l-14.915-.148a14.234,14.234,0,0,1-1.317.85,8.574,8.574,0,0,1-1.935.751,20.2,20.2,0,0,1-3,.542,42.359,42.359,0,0,1-4.526.221c-1.367.007-2.7-.045-4-.155a27.42,27.42,0,0,1-3.473-.495,10.825,10.825,0,0,1-2.491-.816c-.646-.324-1.009-.7-1.085-1.117l-4.046-.042a5.319,5.319,0,0,1-.956-.084c-.279-.054-.421-.126-.422-.216l0-.4,5.533.053a2.974,2.974,0,0,1,1.513-1.115,17.293,17.293,0,0,1,2.808-.844l1.853.254c.562.079.842.172.843.278,0,.058-.114.128-.347.213s-.511.187-.831.3a7.659,7.659,0,0,0-.921.416,1.956,1.956,0,0,0-.674.54Zm-13.65.552a1.471,1.471,0,0,0,.735.686,5.9,5.9,0,0,0,1.406.475,14.428,14.428,0,0,0,1.894.273q1.057.087,2.208.082a23.13,23.13,0,0,0,2.345-.116,13.619,13.619,0,0,0,1.754-.3,8.213,8.213,0,0,0,1.32-.436,7.4,7.4,0,0,0,1.008-.539Zm32.47-.362a1.521,1.521,0,0,0-.8-.707,7.212,7.212,0,0,0-1.617-.51,17.868,17.868,0,0,0-2.292-.308q-1.3-.1-2.881-.093a22.126,22.126,0,0,0-2.414.125,12.41,12.41,0,0,0-1.754.319,6.392,6.392,0,0,0-1.26.466,8.946,8.946,0,0,0-.966.569Z" transform="translate(-405.841 -920.063)"></path></g><path class="af" d="M421.478,914.928c-19.465,0-39.731,1.713-42.973,5.029a3.928,3.928,0,0,1,.354.373c2.732-2.3,19.467-4.62,42.619-4.62,23.746,0,40.749,2.439,42.809,4.8a3.886,3.886,0,0,1,.326-.37C461.936,916.7,441.288,914.928,421.478,914.928Z" transform="translate(-377.793 -914.315)"></path></g><g transform="translate(16.826 41.454)"><path class="v" d="M388.521,905.882v9.682c0,3.129,19.545,5.665,43.654,5.665s43.654-2.536,43.654-5.665v-9.682Z" transform="translate(-388.496 -900.217)"></path><ellipse class="ab" cx="43.654" cy="5.665" rx="43.654" ry="5.665" transform="translate(0.026)"></ellipse><path class="x" d="M432.155,911.544c-21.352,0-43.679-2.039-43.679-5.973,0-.216.078-.6.293-.6s.123.3.123.513c0,2.495,17.768,5.274,43.263,5.274s43.263-2.779,43.263-5.274c0-.216.037-.419.253-.419s.164.288.164.5C475.835,909.508,453.508,911.544,432.155,911.544Z" transform="translate(-388.476 -899.823)"></path><g transform="translate(16.18 3.519)"><path class="y" d="M440.446,904.551c.428-.3.884-.589,1.372-.878a8.643,8.643,0,0,1,1.875-.782,17.934,17.934,0,0,1,2.878-.569,36.4,36.4,0,0,1,4.31-.233q2.53-.012,4.751.161a32.374,32.374,0,0,1,3.907.518,12.055,12.055,0,0,1,2.743.851,2.172,2.172,0,0,1,1.254,1.162l4.915.05a4.844,4.844,0,0,1,.942.088c.274.056.407.127.408.212l0,.405-6.319-.061a3.186,3.186,0,0,1-1.694,1.36,17.177,17.177,0,0,1-3.465,1.069l-2.3-.32a2.694,2.694,0,0,1-.508-.121c-.133-.048-.2-.1-.2-.158q0-.116.534-.266t1.205-.371a12.1,12.1,0,0,0,1.319-.522,1.79,1.79,0,0,0,.865-.718l-14.915-.148a14.247,14.247,0,0,1-1.317.849,8.59,8.59,0,0,1-1.935.752,20.266,20.266,0,0,1-3,.542,42.453,42.453,0,0,1-4.525.221c-1.367.007-2.7-.045-4-.155a27.4,27.4,0,0,1-3.473-.5,10.824,10.824,0,0,1-2.491-.815c-.646-.324-1.009-.7-1.085-1.117l-4.046-.041a5.273,5.273,0,0,1-.956-.084c-.279-.054-.421-.126-.422-.216l0-.4,5.532.053a2.978,2.978,0,0,1,1.512-1.114,17.315,17.315,0,0,1,2.808-.845l1.853.255c.563.079.843.172.843.278,0,.057-.114.128-.346.213s-.512.187-.831.3a7.642,7.642,0,0,0-.921.416,1.947,1.947,0,0,0-.674.54Zm-13.65.552a1.47,1.47,0,0,0,.735.686,5.852,5.852,0,0,0,1.406.475,14.338,14.338,0,0,0,1.894.273q1.057.087,2.209.081a22.95,22.95,0,0,0,2.345-.116,13.516,13.516,0,0,0,1.754-.3,8.142,8.142,0,0,0,1.32-.436,7.331,7.331,0,0,0,1.008-.538Zm32.47-.362a1.521,1.521,0,0,0-.8-.707,7.241,7.241,0,0,0-1.617-.51,17.874,17.874,0,0,0-2.292-.308q-1.3-.1-2.881-.093a22.275,22.275,0,0,0-2.414.126,12.424,12.424,0,0,0-1.754.318,6.391,6.391,0,0,0-1.26.466,8.862,8.862,0,0,0-.966.569Z" transform="translate(-417.072 -902.089)"></path></g><path class="ag" d="M432.708,896.954c-19.465,0-39.732,1.713-42.973,5.029a3.924,3.924,0,0,1,.354.373c2.732-2.3,19.467-4.62,42.619-4.62,23.746,0,40.749,2.439,42.809,4.8a4.052,4.052,0,0,1,.326-.37C473.166,898.73,452.518,896.954,432.708,896.954Z" transform="translate(-389.023 -896.341)"></path></g><g transform="translate(12.136 30.482)"><path class="v" d="M380.232,886.49v9.682c0,3.128,19.545,5.665,43.654,5.665s43.654-2.537,43.654-5.665V886.49Z" transform="translate(-380.207 -880.825)"></path><path class="ab" d="M467.54,882.143c0,3.128-19.544,5.665-43.654,5.665s-43.654-2.537-43.654-5.665,19.545-5.665,43.654-5.665S467.54,879.014,467.54,882.143Z" transform="translate(-380.207 -876.478)"></path><path class="x" d="M423.867,892.152c-21.352,0-43.679-2.039-43.679-5.973,0-.216.077-.6.293-.6s.123.3.123.513c0,2.494,17.768,5.274,43.263,5.274s43.263-2.779,43.263-5.274c0-.216.037-.419.253-.419s.164.289.164.5C467.547,890.115,445.219,892.152,423.867,892.152Z" transform="translate(-380.188 -880.431)"></path><g transform="translate(16.18 3.519)"><path class="y" d="M432.157,885.159c.428-.3.884-.589,1.372-.878a8.644,8.644,0,0,1,1.875-.782,17.922,17.922,0,0,1,2.878-.569,36.548,36.548,0,0,1,4.31-.233q2.531-.013,4.751.161a32.385,32.385,0,0,1,3.907.517,12.106,12.106,0,0,1,2.743.851,2.172,2.172,0,0,1,1.254,1.162l4.915.05a4.847,4.847,0,0,1,.942.087c.275.056.408.127.408.213l0,.4-6.319-.061a3.187,3.187,0,0,1-1.694,1.36,17.168,17.168,0,0,1-3.465,1.069l-2.3-.32a2.663,2.663,0,0,1-.508-.12c-.133-.048-.2-.1-.2-.158q0-.116.534-.266t1.205-.371a12.159,12.159,0,0,0,1.319-.522,1.79,1.79,0,0,0,.865-.719l-14.915-.148a14.138,14.138,0,0,1-1.317.85,8.563,8.563,0,0,1-1.935.751,20.193,20.193,0,0,1-3,.543,42.487,42.487,0,0,1-4.526.221c-1.367.007-2.7-.045-4-.155a27.417,27.417,0,0,1-3.473-.5,10.832,10.832,0,0,1-2.491-.816c-.646-.324-1.009-.7-1.084-1.117l-4.047-.041a5.328,5.328,0,0,1-.956-.084c-.279-.054-.421-.126-.422-.216l0-.4,5.533.053a2.97,2.97,0,0,1,1.512-1.115,17.3,17.3,0,0,1,2.808-.844l1.853.254c.562.079.842.172.842.278,0,.058-.114.128-.346.213s-.512.187-.831.3a7.685,7.685,0,0,0-.922.416,1.959,1.959,0,0,0-.674.54Zm-13.65.551a1.468,1.468,0,0,0,.735.686,5.855,5.855,0,0,0,1.406.475,14.429,14.429,0,0,0,1.894.273q1.057.087,2.209.081a23.125,23.125,0,0,0,2.345-.116,13.5,13.5,0,0,0,1.754-.3,8.14,8.14,0,0,0,1.32-.436,7.336,7.336,0,0,0,1.008-.538Zm32.47-.362a1.521,1.521,0,0,0-.8-.707,7.237,7.237,0,0,0-1.617-.51,17.8,17.8,0,0,0-2.292-.307q-1.3-.1-2.881-.093a22.1,22.1,0,0,0-2.414.125,12.489,12.489,0,0,0-1.754.318,6.4,6.4,0,0,0-1.26.466,8.962,8.962,0,0,0-.966.569Z" transform="translate(-408.783 -882.697)"></path></g><path class="ah" d="M424.419,877.561c-19.465,0-39.732,1.713-42.973,5.029a3.937,3.937,0,0,1,.354.373c2.732-2.3,19.467-4.62,42.619-4.62,23.746,0,40.749,2.438,42.809,4.8a4.029,4.029,0,0,1,.327-.37C464.877,879.337,444.229,877.561,424.419,877.561Z" transform="translate(-380.734 -876.948)"></path></g><g transform="translate(0 20.311)"><path class="aa" d="M358.785,868.515V878.2c0,3.128,19.545,5.664,43.654,5.664s43.654-2.536,43.654-5.664v-9.683Z" transform="translate(-358.76 -862.85)"></path><ellipse class="ab" cx="43.654" cy="5.665" rx="43.654" ry="5.665" transform="translate(0.026)"></ellipse><path class="ae" d="M402.419,874.178c-21.352,0-43.679-2.04-43.679-5.973,0-.216.077-.6.293-.6s.123.3.123.513c0,2.495,17.768,5.274,43.263,5.274s43.263-2.779,43.263-5.274c0-.216.037-.418.253-.418s.164.288.164.5C446.1,872.141,423.771,874.178,402.419,874.178Z" transform="translate(-358.74 -862.457)"></path><g transform="translate(16.18 3.519)"><path class="y" d="M410.709,867.184c.428-.3.884-.588,1.372-.878a8.633,8.633,0,0,1,1.875-.781,17.922,17.922,0,0,1,2.878-.569,36.293,36.293,0,0,1,4.311-.233q2.53-.013,4.751.161a32.263,32.263,0,0,1,3.907.517,12.117,12.117,0,0,1,2.743.851,2.172,2.172,0,0,1,1.254,1.162l4.915.05a4.847,4.847,0,0,1,.942.087c.274.056.407.127.408.213l0,.4-6.319-.061a3.185,3.185,0,0,1-1.695,1.36,17.151,17.151,0,0,1-3.465,1.069l-2.3-.32a2.653,2.653,0,0,1-.508-.121c-.132-.048-.2-.1-.2-.158q0-.117.534-.266t1.205-.371a12.038,12.038,0,0,0,1.318-.521,1.788,1.788,0,0,0,.865-.719l-14.915-.148a14.256,14.256,0,0,1-1.317.85,8.585,8.585,0,0,1-1.935.751,20.273,20.273,0,0,1-3,.542,42.311,42.311,0,0,1-4.526.221c-1.367.007-2.7-.045-4-.155a27.4,27.4,0,0,1-3.473-.495,10.825,10.825,0,0,1-2.491-.816c-.646-.324-1.009-.7-1.085-1.117l-4.046-.042a5.331,5.331,0,0,1-.956-.084c-.279-.054-.421-.126-.422-.216l0-.405,5.533.053a2.972,2.972,0,0,1,1.512-1.115,17.375,17.375,0,0,1,2.808-.845l1.853.255c.563.079.842.171.842.278,0,.057-.113.128-.346.213s-.511.187-.831.3a7.592,7.592,0,0,0-.921.416,1.956,1.956,0,0,0-.674.54Zm-13.65.552a1.471,1.471,0,0,0,.735.686,5.894,5.894,0,0,0,1.406.475,14.351,14.351,0,0,0,1.894.272q1.057.088,2.208.081a22.974,22.974,0,0,0,2.345-.115,13.7,13.7,0,0,0,1.755-.3,8.236,8.236,0,0,0,1.319-.436,7.366,7.366,0,0,0,1.008-.539Zm32.47-.362a1.52,1.52,0,0,0-.8-.707,7.207,7.207,0,0,0-1.617-.51,17.91,17.91,0,0,0-2.292-.308q-1.3-.1-2.881-.093a22.109,22.109,0,0,0-2.414.125,12.41,12.41,0,0,0-1.754.319,6.382,6.382,0,0,0-1.26.466,8.872,8.872,0,0,0-.966.569Z" transform="translate(-387.335 -864.723)"></path></g><path class="ai" d="M402.972,859.587c-19.465,0-39.732,1.713-42.973,5.029a4.009,4.009,0,0,1,.354.373c2.732-2.3,19.467-4.62,42.619-4.62,23.746,0,40.749,2.439,42.808,4.8a3.966,3.966,0,0,1,.327-.37C443.43,861.363,422.782,859.587,402.972,859.587Z" transform="translate(-359.287 -858.974)"></path></g><g transform="translate(10.471 10.17)"><path class="v" d="M377.291,850.594v9.682c0,3.129,19.545,5.665,43.654,5.665s43.654-2.537,43.654-5.665v-9.682Z" transform="translate(-377.266 -844.929)"></path><ellipse class="ab" cx="43.654" cy="5.665" rx="43.654" ry="5.665" transform="translate(0.026)"></ellipse><path class="x" d="M420.925,856.256c-21.352,0-43.679-2.039-43.679-5.973,0-.216.078-.6.293-.6s.123.3.123.513c0,2.494,17.768,5.274,43.263,5.274s43.263-2.779,43.263-5.274c0-.216.037-.419.253-.419s.164.288.164.5C464.605,854.219,442.278,856.256,420.925,856.256Z" transform="translate(-377.246 -844.535)"></path><g transform="translate(16.18 3.519)"><path class="y" d="M429.215,849.263c.428-.3.884-.589,1.372-.878a8.614,8.614,0,0,1,1.875-.782,17.923,17.923,0,0,1,2.878-.569,36.542,36.542,0,0,1,4.311-.233q2.53-.013,4.751.161a32.256,32.256,0,0,1,3.907.518,12.088,12.088,0,0,1,2.743.85,2.172,2.172,0,0,1,1.254,1.162l4.915.05a4.847,4.847,0,0,1,.942.087c.275.056.407.127.408.213l0,.4-6.319-.061a3.185,3.185,0,0,1-1.695,1.361,17.192,17.192,0,0,1-3.465,1.069l-2.3-.32a2.673,2.673,0,0,1-.508-.12c-.132-.049-.2-.1-.2-.158q0-.116.534-.266t1.205-.371a12.189,12.189,0,0,0,1.319-.522,1.791,1.791,0,0,0,.865-.719l-14.915-.148a14.134,14.134,0,0,1-1.317.85,8.575,8.575,0,0,1-1.935.751,20.2,20.2,0,0,1-3,.543,42.489,42.489,0,0,1-4.526.221c-1.367.007-2.7-.045-4-.155a27.39,27.39,0,0,1-3.473-.5,10.822,10.822,0,0,1-2.491-.816c-.646-.324-1.009-.7-1.085-1.117l-4.046-.041a5.323,5.323,0,0,1-.956-.084c-.279-.054-.421-.126-.422-.216l0-.4,5.533.053a2.975,2.975,0,0,1,1.513-1.115,17.305,17.305,0,0,1,2.808-.844l1.853.254c.562.079.842.171.843.278,0,.058-.114.128-.347.213s-.511.187-.831.3a7.627,7.627,0,0,0-.921.415,1.954,1.954,0,0,0-.674.54Zm-13.65.551a1.471,1.471,0,0,0,.735.686,5.849,5.849,0,0,0,1.406.475,14.427,14.427,0,0,0,1.894.273q1.057.087,2.208.081a23.111,23.111,0,0,0,2.345-.116,13.609,13.609,0,0,0,1.754-.3,8.159,8.159,0,0,0,1.32-.436,7.338,7.338,0,0,0,1.008-.538Zm32.47-.362a1.521,1.521,0,0,0-.8-.707,7.24,7.24,0,0,0-1.617-.51,17.9,17.9,0,0,0-2.292-.308q-1.3-.1-2.881-.093a22.093,22.093,0,0,0-2.414.125,12.49,12.49,0,0,0-1.754.318,6.4,6.4,0,0,0-1.26.466,8.966,8.966,0,0,0-.966.569Z" transform="translate(-405.841 -846.801)"></path></g><path class="aj" d="M421.478,841.665c-19.465,0-39.731,1.713-42.973,5.029a4,4,0,0,1,.354.373c2.732-2.3,19.467-4.619,42.619-4.619,23.746,0,40.749,2.438,42.809,4.8a3.957,3.957,0,0,1,.326-.37C461.936,843.441,441.288,841.665,421.478,841.665Z" transform="translate(-377.793 -841.052)"></path></g><g transform="translate(5.025)"><path class="v" d="M367.666,832.619V842.3c0,3.129,19.544,5.666,43.654,5.666s43.654-2.537,43.654-5.666v-9.682Z" transform="translate(-367.641 -826.954)"></path><ellipse class="ab" cx="43.654" cy="5.665" rx="43.654" ry="5.665" transform="translate(0.025)"></ellipse><path class="ak" d="M411.3,838.281c-21.352,0-43.679-2.039-43.679-5.973,0-.216.077-.6.293-.6s.123.3.123.513c0,2.495,17.768,5.274,43.263,5.274s43.263-2.779,43.263-5.274c0-.216.037-.418.253-.418s.164.288.164.5C454.98,836.245,432.652,838.281,411.3,838.281Z" transform="translate(-367.621 -826.56)"></path><g transform="translate(16.18 3.519)"><path class="y" d="M419.59,831.288c.428-.3.884-.588,1.372-.878a8.645,8.645,0,0,1,1.875-.781,17.855,17.855,0,0,1,2.878-.569,36.313,36.313,0,0,1,4.31-.233q2.531-.013,4.751.161a32.246,32.246,0,0,1,3.907.517,12.109,12.109,0,0,1,2.743.851,2.171,2.171,0,0,1,1.254,1.162l4.915.05a4.847,4.847,0,0,1,.942.087c.275.056.408.127.408.213l0,.4-6.319-.061a3.186,3.186,0,0,1-1.694,1.36,17.172,17.172,0,0,1-3.465,1.069l-2.3-.32a2.644,2.644,0,0,1-.508-.121c-.133-.048-.2-.1-.2-.158q0-.117.534-.266t1.205-.371a12.041,12.041,0,0,0,1.319-.521,1.791,1.791,0,0,0,.865-.719l-14.915-.148a14.256,14.256,0,0,1-1.317.85,8.571,8.571,0,0,1-1.935.751,20.3,20.3,0,0,1-3,.542,42.309,42.309,0,0,1-4.526.221q-2.05.01-4-.155a27.407,27.407,0,0,1-3.473-.495,10.874,10.874,0,0,1-2.491-.816c-.646-.324-1.009-.7-1.084-1.117l-4.047-.042a5.337,5.337,0,0,1-.956-.084c-.279-.054-.421-.126-.422-.216l0-.4,5.533.053a2.97,2.97,0,0,1,1.512-1.115,17.3,17.3,0,0,1,2.808-.845l1.853.255c.562.079.842.171.843.278,0,.057-.114.128-.346.213s-.512.187-.831.3a7.6,7.6,0,0,0-.922.416,1.952,1.952,0,0,0-.674.54Zm-13.65.552a1.463,1.463,0,0,0,.735.686,5.838,5.838,0,0,0,1.406.475,14.255,14.255,0,0,0,1.894.273q1.057.088,2.209.081a22.982,22.982,0,0,0,2.345-.115,13.581,13.581,0,0,0,1.754-.3,8.245,8.245,0,0,0,1.32-.436,7.4,7.4,0,0,0,1.008-.539Zm32.47-.362a1.518,1.518,0,0,0-.8-.707,7.208,7.208,0,0,0-1.617-.51,17.9,17.9,0,0,0-2.292-.308q-1.3-.1-2.881-.093a22.1,22.1,0,0,0-2.413.125,12.413,12.413,0,0,0-1.755.319,6.408,6.408,0,0,0-1.26.466,8.873,8.873,0,0,0-.966.569Z" transform="translate(-396.216 -828.827)"></path></g><path class="al" d="M411.852,823.691c-19.465,0-39.732,1.713-42.973,5.029a3.866,3.866,0,0,1,.354.373c2.732-2.3,19.467-4.62,42.619-4.62,23.746,0,40.749,2.439,42.809,4.8a3.888,3.888,0,0,1,.327-.37C452.31,825.467,431.662,823.691,411.852,823.691Z" transform="translate(-368.167 -823.078)"></path></g><g transform="translate(36.48 21.529)"><path class="am" d="M499.538,905.231c0,20.65-16.147,36.895-36.785,36.261-21.478-.66-39.542-19.209-39.542-41.406s18.064-38.311,39.542-36.075C483.391,866.159,499.538,884.581,499.538,905.231Z" transform="translate(-423.211 -862.022)"></path><path class="an" d="M509.394,902.084c0,20.65-16.147,36.894-36.785,36.261-21.478-.66-39.542-19.209-39.542-41.406s18.064-38.311,39.542-36.075C493.247,863.012,509.394,881.434,509.394,902.084Z" transform="translate(-427.49 -860.656)"></path><path class="ao" d="M509.206,903.341c0,19.741-15.45,35.244-35.165,34.605-20.481-.663-37.676-18.366-37.676-39.516s17.2-36.534,37.676-34.436C493.756,866.014,509.206,883.6,509.206,903.341Z" transform="translate(-428.922 -862.022)"></path><path class="ap" d="M509.065,904.238c0,19.089-14.949,34.062-34,33.423C455.291,937,438.713,919.9,438.713,899.5s16.578-35.267,36.347-33.265C494.116,868.16,509.065,885.148,509.065,904.238Z" transform="translate(-429.941 -862.998)"></path><path class="aq" d="M468.906,909.056c1.149-11.348,11.578-16.152,10.217-26.59-.839-6.433-5.715-11.855-11.154-16.088-16.5,1.73-29.256,15.391-29.256,33.26,0,20.4,16.578,37.5,36.347,38.166a34.385,34.385,0,0,0,5.617-.274C472.826,929.718,467.919,918.8,468.906,909.056Z" transform="translate(-429.941 -863.141)"></path></g></g><path class="ar" d="M420.6,669.1c2.161-1.4.192-5.478.076-14.235-.143-10.73,2.707-12.729.418-16.939-2.8-5.148-9.845-7.278-14.513-7.378-1.03-.023-1.27-.584-9.9,1.649-15.539,4.025-19.43-.289-26.389,4.02-6.723,4.164-3.779,8.724-10.308,13.607-10.583,7.915-21.711-.642-29.275,5.979-7.154,6.263-7.319,22.217.206,30.925,8.531,9.87,23.913,6.9,34.223,4.948a63,63,0,0,0,24.533-11.133,65.309,65.309,0,0,0,13.4-13.3,4.84,4.84,0,0,1,2.989-1.752,5.225,5.225,0,0,1,3.5,1.236C412.822,668.983,418.476,670.478,420.6,669.1Z" transform="translate(-325.31 -630.47)"></path><path class="p" d="M477.735,687.828c2.779-2.532,12.7,2.348,19.269,8.825,7.721,7.609,7.128,13.779,13.866,23.231,3.35,4.7,9.094,11.026,19.27,16.568l-2.161,5.4c-4.92.3-14.58.122-23.592-5.762-6.26-4.088-9.481-9.5-15.667-20.17C482.511,705.218,474.261,690.993,477.735,687.828Z" transform="translate(-391.131 -655.078)"></path><path class="as" d="M579.629,940.555l-7.742-4.652h-3.494a41.946,41.946,0,0,0-1.055,4.652c1.557,2.551,8.8,4.492,13.328,4.652.751.027,1.8.031,2.07-.514C583.194,943.771,581.145,941.838,579.629,940.555Z" transform="translate(-430.387 -763.08)"></path><path class="at" d="M572.185,926.931c-.5,2.88.132,4.381.811,5.223.478.592.9.76,3.736,3.211.938.81,1.415,1.244,1.306,1.472-.124.26-.951.119-2.737-.311-3.893-.936-5.849-1.424-6.327-2.36-.432-.848-.05-1.231-.075-3.542a12.036,12.036,0,0,0-.569-3.513Z" transform="translate(-430.822 -759.184)"></path><path class="au" d="M580.068,885.041s3.5,4.174,2.929,8.749-6.695-2.114-7.549-4.374-1.852-5.482-1.852-5.482S577.892,881.261,580.068,885.041Z" transform="translate(-433.108 -740.118)"></path><path class="av" d="M579.993,875.052s-.949,4.863.861,7.429c.9,1.278,2.117,2.362,1.76,3.4a1.931,1.931,0,0,1-1.92,1.119c-1.475-.152-2.293-2.414-2.87-4.009a41.961,41.961,0,0,1-1.327-7.4Z" transform="translate(-434.367 -736.66)"></path><path class="aw" d="M557.89,843.794l3.227-1.176a36.359,36.359,0,0,0,3.042-17.781c-1.759-19.679-19.96-30.107-21.982-31.223-4.959,2.488-9.982,6-10.164,10.423-.228,5.555,7.339,8.491,14.452,16.613C550.735,825.526,555.3,832.79,557.89,843.794Z" transform="translate(-415.052 -701.302)"></path><path class="ax" d="M512.437,861.706a78.474,78.474,0,0,0,1.621-31.74c-1.55-9.865-4.7-29.931-18.1-37.413-2.925-1.634-7.107-3.1-12.2-7.64a43.228,43.228,0,0,1-8.595-10.594c-17.917-5.256-34.443-3.126-41.735,6.483a13.935,13.935,0,0,0-3.36,7.07c-.921,8.012,6.952,17.658,15.786,19.673,11.228,2.56,17.741-8.968,27.688-5.133,2.783,1.073,5.142,3.732,9.86,9.049a75.226,75.226,0,0,1,10.653,15.5c3.8,7.437,6.683,12.928,7.1,20.043a19.235,19.235,0,0,0,2.1,8.619,17.961,17.961,0,0,0,5.014,5.763Z" transform="translate(-370.759 -691.709)"></path><path class="ay" d="M430.064,787.872a13.935,13.935,0,0,1,3.36-7.07c7.292-9.609,23.818-11.739,41.735-6.483a43.228,43.228,0,0,0,8.595,10.594c5.1,4.542,9.28,6.006,12.2,7.64,8.181,4.569,12.538,13.829,15.047,22.595-3.722-5.771-6.908-7.3-9.374-7.333-3.529-.039-5.106,2.979-9.32,2.567-4.5-.44-5.533-4.164-9.184-4.592a6.8,6.8,0,0,0-4.052.9c-2.155-2.256-3.761-3.592-5.538-4.277-9.947-3.835-16.461,7.693-27.688,5.133C437.015,805.531,429.143,795.884,430.064,787.872Z" transform="translate(-370.759 -691.709)"></path><path class="az" d="M501.333,806.673a59.031,59.031,0,0,0-8.918.2c-17.877,1.767-22.806,10.609-37.581,12.767-3.5.51-19.058,2.783-25.8-6.213-4.839-6.459-4.107-17.588,1.186-21.966,2.24-1.852,4.458-1.8,18.8-1.671,5.4.049,10.806.066,16.208.135,22.869.291,27.242-1.292,31.4,2.49C498.579,794.183,501.418,797.973,501.333,806.673Z" transform="translate(-368.938 -699.62)"></path><g transform="translate(54.312 32.147)"><path class="p" d="M477.2,738.98s-11.345,2.218-23.307,4.346c-13.535,2.4-27.867,4.7-27.488,3.531,3.876-11.888-.017-19.7-2.807-28.49-1.669-5.228-2.942-10.807-1.952-17.8,2.773-19.538,29.457-11.758,29.457-11.758,8.652.351,9.6,1.262,10.389,2.139a31.96,31.96,0,0,1,7.073,13.229c1.375,6.377-.181,8.827,0,14.225C468.727,723.324,470.323,730.4,477.2,738.98Z" transform="translate(-421.297 -687.285)"></path><path class="ba" d="M443.675,779.166s25.034-6.7,39.957-7.535Z" transform="translate(-431.013 -723.905)"></path></g><g transform="translate(70.3 17.575)"><path class="bb" d="M457.573,669.3c.244,1.142,1.489,7.271-1.018,8.848a13.3,13.3,0,0,1-3.677.929c-1.368.256-2.515.414-3.324.51a8.383,8.383,0,0,0,1.649,4.222c3.324,4.265,9.991,3.161,10.941,2.988,3.353-.611,6.652-1.647,7.45-2.28a16.894,16.894,0,0,0,2.731-2.422,47.453,47.453,0,0,0-5.675-2.822,32.535,32.535,0,0,0-3.669-.9l-.553-3.552Z" transform="translate(-449.553 -664.903)"></path><path class="bc" d="M462.607,668.98s.453,4.492,4.819,5.283c3.909.708,6.852-8.738,4.851-11.181a5.236,5.236,0,0,0-3.743-1.549,5.807,5.807,0,0,0-4.871,4.716c-.676-.712-1.518-.916-1.933-.618-.527.378-.244,1.478-.18,1.727A3.165,3.165,0,0,0,462.607,668.98Z" transform="translate(-454.704 -661.531)"></path></g><g transform="translate(72.105 63.294)"><path class="bd" d="M496.293,782.529l-40.844,1.987a1.716,1.716,0,0,0-1.373.806l-1.13,1.814a1.326,1.326,0,0,0,1.176,2.027l43.263-1.648Z" transform="translate(-452.743 -759.784)"></path><path class="be" d="M558.888,742.331l-42.2.818a3.539,3.539,0,0,0-3.008,1.79L499.07,770.647l44.565-1.776a3.628,3.628,0,0,0,2.968-1.761l13.538-22.617A1.429,1.429,0,0,0,558.888,742.331Z" transform="translate(-472.857 -742.331)"></path><path class="bf" d="M513.683,745.553a3.539,3.539,0,0,1,3.008-1.79l.925-.018a6.573,6.573,0,0,0,1.389,3.614c2.6,3.141,6.925,1.2,10.146,4.527,3.539,3.651.27,8,3.435,11.4,3.331,3.577,8.717.665,14.908,2.954l-.892,1.489a3.626,3.626,0,0,1-2.968,1.761l-44.565,1.776Z" transform="translate(-472.857 -742.945)"></path></g><path class="bg" d="M455.656,763.7c-13.535,2.4-27.867,4.7-27.488,3.531,3.876-11.888-.017-19.7-2.807-28.49l.73-4.527s5.036,2.167,6.264,7.356-.1,9.053,4.906,9.806c3.18.481,9.942,3.746,14.519,7.729.243.215.487.43.719.651A15.221,15.221,0,0,1,455.656,763.7Z" transform="translate(-368.749 -675.514)"></path><g transform="translate(34.951 34.817)"><path class="p" d="M430.268,741.86q.8-2.106,1.594-4.211c-5.876-1.611-14-3.991-22.336-6.969-1.305-.466-2.856-1.044-3.364-2.418-1.425-3.853,7.635-7.846,11.158-16.26,3.258-7.781,1.464-18.579-2.316-19.855-7.867-2.655-35.764,32.071-25.8,46.709C394.835,747.13,412.2,748.448,430.268,741.86Z" transform="translate(-387.079 -692.002)"></path></g><path class="bh" d="M464.729,772.018c3.689-1.959,8.1.049,8.389.183a11.04,11.04,0,0,1,3.182,2.281c.135.184,1.735,2.4,1.151,3.112-.467.569-2.276.1-4.451-1.255a16.908,16.908,0,0,0-3.895-.1c-2.985.276-4.353,1.219-5.437.4a2.688,2.688,0,0,1-.779-2.793A3.326,3.326,0,0,1,464.729,772.018Z" transform="translate(-384.996 -691.555)"></path></g><g transform="translate(562.909 536.09)"><g transform="translate(0.321)"><g class="bi"><g class="bj" transform="translate(2.293)"><path class="b" d="M793.889,885.421a77.148,77.148,0,0,1,8.592,8.252c6.906,1.058,14.209,2.648,21.161,1.755a14.3,14.3,0,0,0,5.565-2.027,21.742,21.742,0,0,0,3.414-2.4c4.167-3.685,4.157-11.235,6.3-16.511,1.422-3.506,4.811-7.058,12.968-12.141,7.442-4.638,23.187-10.995,25.213-20.962,2.309-11.355-7.567-12.455-4.777-20.568,4.362-12.681.276-26.316-13.138-27.616-13.239-1.284-25.91,18.16-27.371,47.816-3.458,21.156-6.912,23.6-16.318,27.954-5.4,2.5-19.509,5.688-25.091,13.5C791.7,883.462,792.921,884.623,793.889,885.421Z" transform="translate(-790.403 -793.146)"></path><g class="bk"><g transform="translate(24.713 -11.829)"><path class="bl" d="M834.477,880.983c.321-.405.647-.809.965-1.215a246.928,246.928,0,0,0,26.109-40.86,206.312,206.312,0,0,0,13.613-34.057,165.235,165.235,0,0,0,5.188-23.324c.188-1.306.307-2.652.422-3.954.153-1.735.312-3.529.635-5.241l-.482-.091c-.328,1.736-.487,3.542-.642,5.288-.115,1.3-.233,2.635-.419,3.928a164.672,164.672,0,0,1-5.173,23.254,205.746,205.746,0,0,1-13.581,33.976,246.378,246.378,0,0,1-26.057,40.779c-.321.411-.652.821-.977,1.231C834.213,880.79,834.344,880.887,834.477,880.983Z" transform="translate(-834.078 -772.24)"></path><path class="bl" d="M865.462,896.172l.411.267c11.459-17.654,45.5-29.578,45.839-29.7l-.16-.463C911.208,866.4,877.012,878.377,865.462,896.172Z" transform="translate(-847.704 -813.069)"></path><path class="bl" d="M902.16,823.2l.426.244c5.823-10.17,14.3-19.5,17.085-22.572.674-.743.911-1,.978-1.111l-.415-.261c-.052.08-.437.5-.925,1.042C916.513,803.619,908.01,812.983,902.16,823.2Z" transform="translate(-863.637 -784.075)"></path><path class="bl" d="M882.195,850.118l.478.107c2.41-10.722-9.405-29.256-9.909-30.039l-.412.265C872.473,820.641,884.56,839.6,882.195,850.118Z" transform="translate(-850.695 -793.057)"></path></g></g></g></g></g><g transform="translate(0 27.399)"><g class="bj"><path class="c" d="M788.35,894.19a6.949,6.949,0,0,0-2.451,3.827c-1.053,5,5.356,10.068,6.867,11.263,8.714,6.9,20.458,5.337,24.52,4.608,4.492-2.37,9.233-6.306,6.05-12.279-3.594-6.745-7.292-10.363-1.093-17.424s6.634-14.826.164-20.38c-6.809-5.844-3.718-19.5-11.748-21.781-13.994-3.978-20.183,18.9-13.265,34.052S794.021,889,788.35,894.19Z" transform="translate(-785.783 -841.569)"></path><g class="bm"><g transform="translate(-0.085)"><g class="bn"><g transform="translate(0.362 -2.066)"><path class="bl" d="M814.163,913.3c.152.006.3.01.455.014,10.521-23.634,11.975-51.356,3.422-75.4l-.4.142C826.177,862.052,824.7,889.73,814.163,913.3Z" transform="translate(-798.381 -837.918)"></path><path class="bl" d="M815.672,961.394l.3.295c8.468-8.709,22.524-8.249,22.665-8.243l.017-.423C838.515,953.018,824.273,952.548,815.672,961.394Z" transform="translate(-799.037 -887.891)"></path><path class="bl" d="M797.706,955.031c.148.024.3.042.445.065-2.567-9.958-11.449-19.865-11.566-19.993l-.313.283C786.387,935.513,795.122,945.254,797.706,955.031Z" transform="translate(-786.272 -880.112)"></path><path class="bl" d="M829.063,904.284l.4.15c3.461-9.136,17.269-14.946,17.408-15l-.162-.391C846.564,889.1,832.588,894.979,829.063,904.284Z" transform="translate(-804.851 -860.113)"></path><path class="bl" d="M817.692,866.787l.41-.1c-2.736-10.79-15.513-18.722-15.642-18.8l-.221.36C802.367,848.321,815,856.165,817.692,866.787Z" transform="translate(-793.205 -842.245)"></path></g></g></g></g></g></g><g transform="translate(30.436 63.554)"><g class="bo"><g class="bj" transform="translate(-2.774 0)"><path class="d" d="M879.158,906.267c-13.012-3.865-20.165,7.261-25.113,12.021s-12.982-1.507-15.857,7.076c-1.591,4.751-1.8,9.627-3.518,12.707q.818.524,1.634,1.051l.159.09c.775.442,1.558.846,2.365,1.219-.179-.094.753.282.852.315.465.152.935.29,1.408.416a31.525,31.525,0,0,0,11.53,1.142c3.071-.669,6.745-2.04,8.28-5.159.875-1.777.23-2.446.893-3.842,2.056-4.328,9.71-7.49,19.343-5.567C891.388,929.786,900.947,912.739,879.158,906.267Z" transform="translate(-834.67 -905.467)"></path><g class="bp"><g transform="translate(2.923 -0.302)"><path class="p" d="M871.182,928.268c-7.441,2.268-15.135,6.981-22.869,14.009-2.762,2.51-5.332,5.142-7.672,7.735.068.062.135.126.2.188,2.336-2.589,4.9-5.217,7.66-7.722,12.093-10.989,30.43-21.814,49.109-10.982l.139-.239A32.294,32.294,0,0,0,871.182,928.268Z" transform="translate(-840.185 -914.38)"></path><path class="p" d="M887.828,920.174l.229.154c5.147-7.618,16.292-15.091,16.4-15.166l-.153-.23C904.2,905.007,893.006,912.511,887.828,920.174Z" transform="translate(-860.673 -904.932)"></path><path class="p" d="M898.889,928.618a23.013,23.013,0,0,1,15.575,9.643l.238-.14a23.294,23.294,0,0,0-15.769-9.776Z" transform="translate(-865.475 -915.097)"></path><path class="p" d="M840,966.614c10.895-7.776,26.336,1.473,26.479,1.576l.175-.213c-.131-.114-15.823-9.432-26.815-1.587Z" transform="translate(-839.836 -930.252)"></path><path class="p" d="M846.423,948.161l.241.136c4.192-7.442,1.146-17.743,1.115-17.846l-.264.08C847.546,930.633,850.557,940.824,846.423,948.161Z" transform="translate(-842.696 -916.012)"></path></g></g></g></g></g></g><g transform="translate(589.281 243.863)"><path class="am" d="M943.961,341.846c0,30.185-23.6,53.931-53.771,53-31.4-.964-57.8-28.079-57.8-60.526s26.4-56,57.8-52.733C920.358,284.733,943.961,311.661,943.961,341.846Z" transform="translate(-832.39 -278.686)"></path><path class="an" d="M958.368,337.246c0,30.185-23.6,53.931-53.771,53-31.4-.964-57.8-28.079-57.8-60.526s26.4-56,57.8-52.733C934.765,280.133,958.368,307.061,958.368,337.246Z" transform="translate(-838.645 -276.689)"></path><path class="ao" d="M958.092,339.084c0,28.856-22.584,51.518-51.4,50.584-29.937-.969-55.073-26.846-55.073-57.763s25.136-53.4,55.073-50.337C935.508,284.521,958.092,310.228,958.092,339.084Z" transform="translate(-840.737 -278.686)"></path><path class="ap" d="M957.887,340.4c0,27.9-21.853,49.791-49.707,48.856-28.9-.97-53.131-25.963-53.131-55.789s24.233-51.552,53.131-48.625C936.034,287.657,957.887,312.491,957.887,340.4Z" transform="translate(-842.228 -280.112)"></path><path class="aq" d="M899.185,347.438c1.679-16.587,16.923-23.609,14.934-38.866-1.226-9.4-8.353-17.329-16.3-23.517-24.117,2.529-42.766,22.5-42.766,48.617,0,29.827,24.233,54.819,53.132,55.789a50.135,50.135,0,0,0,8.21-.4C904.914,377.64,897.742,361.688,899.185,347.438Z" transform="translate(-842.227 -280.321)"></path></g><g transform="translate(497.986 201.082)"><path class="am" d="M753.552,249.267c0,22.323-17.455,39.883-39.764,39.2-23.217-.714-42.744-20.765-42.744-44.761s19.527-41.414,42.744-39C736.1,207.031,753.552,226.945,753.552,249.267Z" transform="translate(-671.044 -202.559)"></path><path class="an" d="M764.206,245.865c0,22.323-17.455,39.883-39.764,39.2C701.225,284.35,681.7,264.3,681.7,240.3s19.527-41.414,42.744-39C746.752,203.629,764.206,223.543,764.206,245.865Z" transform="translate(-675.67 -201.082)"></path><path class="ao" d="M764,247.225c0,21.34-16.7,38.1-38.013,37.408-22.139-.717-40.727-19.853-40.727-42.716s18.588-39.493,40.727-37.225C747.3,206.875,764,225.885,764,247.225Z" transform="translate(-677.217 -202.559)"></path><path class="ap" d="M763.851,248.194c0,20.636-16.161,36.821-36.759,36.13-21.37-.717-39.291-19.2-39.291-41.257s17.921-38.123,39.291-35.959C747.69,209.194,763.851,227.559,763.851,248.194Z" transform="translate(-678.319 -203.614)"></path><path class="aq" d="M720.439,253.4c1.242-12.267,12.515-17.459,11.044-28.742-.906-6.954-6.178-12.815-12.057-17.391-17.835,1.871-31.626,16.638-31.626,35.953,0,22.057,17.921,40.54,39.291,41.257a37.062,37.062,0,0,0,6.072-.3C724.676,275.737,719.372,263.941,720.439,253.4Z" transform="translate(-678.319 -203.768)"></path></g><g transform="translate(350.117 276.593)"><path class="am" d="M451.722,359.067c0,11.365-8.888,20.307-20.246,19.957-11.821-.363-21.764-10.573-21.764-22.789s9.942-21.086,21.764-19.856C442.834,337.562,451.722,347.7,451.722,359.067Z" transform="translate(-409.712 -335.285)"></path><path class="an" d="M457.147,357.335c0,11.366-8.888,20.307-20.247,19.957-11.821-.363-21.763-10.573-21.763-22.789s9.942-21.086,21.763-19.856C448.259,335.83,457.147,345.969,457.147,357.335Z" transform="translate(-412.067 -334.533)"></path><path class="bq" d="M457.042,358.027a18.676,18.676,0,0,1-19.355,19.046c-11.272-.365-20.737-10.109-20.737-21.749a18.626,18.626,0,0,1,20.737-18.953A22.008,22.008,0,0,1,457.042,358.027Z" transform="translate(-412.855 -335.286)"></path><path class="br" d="M456.965,358.521a18.037,18.037,0,0,1-18.716,18.4c-10.88-.365-20-9.775-20-21.006a17.99,17.99,0,0,1,20-18.309A21.254,21.254,0,0,1,456.965,358.521Z" transform="translate(-413.416 -335.822)"></path><path class="aq" d="M434.862,361.172c.632-6.246,6.372-8.89,5.623-14.635-.462-3.54-3.145-6.525-6.139-8.855a17.993,17.993,0,0,0-16.1,18.306c0,11.231,9.125,20.641,20,21.006a18.9,18.9,0,0,0,3.092-.151C437.019,372.544,434.319,366.538,434.862,361.172Z" transform="translate(-413.416 -335.901)"></path></g><g transform="translate(407.052 211.471)"><path class="am" d="M576.75,258.23c0,17.969-14.05,32.1-32.008,31.552-18.689-.574-34.406-16.715-34.406-36.03s15.718-33.336,34.406-31.39C562.7,224.231,576.75,240.26,576.75,258.23Z" transform="translate(-510.335 -220.632)"></path><path class="an" d="M585.326,255.491c0,17.969-14.05,32.1-32.008,31.552-18.689-.574-34.407-16.715-34.407-36.03s15.718-33.336,34.407-31.39C571.276,221.493,585.326,237.522,585.326,255.491Z" transform="translate(-514.058 -219.443)"></path><path class="ao" d="M585.162,256.585c0,17.178-13.444,30.667-30.6,30.112-17.821-.577-32.784-15.981-32.784-34.384s14.962-31.79,32.784-29.964C571.719,224.106,585.162,239.408,585.162,256.585Z" transform="translate(-515.304 -220.632)"></path><path class="ap" d="M585.04,257.366c0,16.611-13.008,29.639-29.589,29.083-17.2-.577-31.628-15.455-31.628-33.21s14.425-30.687,31.628-28.945C572.031,225.972,585.04,240.755,585.04,257.366Z" transform="translate(-516.191 -221.481)"></path><path class="aq" d="M550.1,261.558c1-9.874,10.074-14.054,8.89-23.136-.73-5.6-4.973-10.316-9.706-14-14.356,1.506-25.457,13.393-25.457,28.94,0,17.755,14.425,32.633,31.628,33.21a29.886,29.886,0,0,0,4.887-.239C553.507,279.536,549.237,270.041,550.1,261.558Z" transform="translate(-516.191 -221.605)"></path></g></g></svg> 