<svg xmlns="http://www.w3.org/2000/svg" width="621" height="571" viewBox="0 0 621 571">
    <defs>
        <linearGradient id="a" x1="51.48%" x2="48.335%" y1="19.495%" y2="81.535%">
            <stop offset="0%" stop-color="#8A4CAD"/>
            <stop offset="100%" stop-color="#5A2876"/>
        </linearGradient>
        <linearGradient id="b" x1="49.979%" x2="49.979%" y1="3.149%" y2="84.661%">
            <stop offset="0%" stop-color="#FFBE51"/>
            <stop offset="45.07%" stop-color="#6A2876"/>
            <stop offset="100%" stop-color="#5A2876"/>
        </linearGradient>
        <linearGradient id="c" x1="49.859%" x2="49.859%" y1="100.187%" y2="-.131%">
            <stop offset="0%" stop-color="#FFF"/>
            <stop offset="100%" stop-color="#A7A9AC"/>
        </linearGradient>
    </defs>
    <g fill="none" fill-rule="evenodd">
        <path fill="url(#a)" fill-rule="nonzero" d="M326.8 120.7s-53 20.3-93 12.3-148.9 11.6-141 126.3c0 35.7 13 119.2 111 215.5 12 13.3 73.5 80.5 156.5 75.4 0 0 216.4-11.2 230.5-171.6 0-15.5-4-45-17.7-70.3-13.7-25.2-23-53.2-32.7-104.2-7.3-41.7-7.3-92.7-63.3-113-11-4-50.3-11.7-90.3 2.3-15.7 6.6-45.8 22.6-60 27.3z"/>
        <g stroke="#FFF" stroke-width="2">
            <path d="M80.1 209h1"/>
            <path stroke-dasharray="1.9294,5.7881,1.9294,5.7881" d="M86.9 209h12.5"/>
            <path stroke-dasharray="1.9294,5.7881,1.9294,5.7881,1.9294,5.7881" d="M102.3 209H192"/>
            <path d="M194.9 209h1M80.1 218.3h1"/>
            <path stroke-dasharray="1.9294,5.7881,1.9294,5.7881" d="M86.9 218.3h12.5"/>
            <path stroke-dasharray="1.9294,5.7881,1.9294,5.7881,1.9294,5.7881" d="M102.3 218.3H192"/>
            <path d="M194.9 218.3h1"/>
            <g>
                <path d="M80.1 227.6h1"/>
                <path stroke-dasharray="1.9294,5.7881,1.9294,5.7881" d="M86.9 227.6h12.5"/>
                <path stroke-dasharray="1.9294,5.7881,1.9294,5.7881,1.9294,5.7881" d="M102.3 227.6H192"/>
                <path d="M194.9 227.6h1"/>
            </g>
            <g>
                <path d="M80.1 236.9h1"/>
                <path stroke-dasharray="1.9294,5.7881,1.9294,5.7881" d="M86.9 236.9h12.5"/>
                <path stroke-dasharray="1.9294,5.7881,1.9294,5.7881,1.9294,5.7881" d="M102.3 236.9H192"/>
                <path d="M194.9 236.9h1"/>
            </g>
            <g>
                <path d="M80.1 246.1h1"/>
                <path stroke-dasharray="1.9294,5.7881,1.9294,5.7881" d="M86.9 246.1h12.5"/>
                <path stroke-dasharray="1.9294,5.7881,1.9294,5.7881,1.9294,5.7881" d="M102.3 246.1H192"/>
                <path d="M194.9 246.1h1"/>
            </g>
            <g>
                <path d="M80.1 255.4h1"/>
                <path stroke-dasharray="1.9294,5.7881,1.9294,5.7881" d="M86.9 255.4h12.5"/>
                <path stroke-dasharray="1.9294,5.7881,1.9294,5.7881,1.9294,5.7881" d="M102.3 255.4H192"/>
                <path d="M194.9 255.4h1"/>
            </g>
            <g>
                <path d="M80.1 264.7h1"/>
                <path stroke-dasharray="1.9294,5.7881,1.9294,5.7881" d="M86.9 264.7h12.5"/>
                <path stroke-dasharray="1.9294,5.7881,1.9294,5.7881,1.9294,5.7881" d="M102.3 264.7H192"/>
                <path d="M194.9 264.7h1"/>
            </g>
        </g>
        <ellipse cx="403.037" cy="503.424" fill="#461E59" fill-rule="nonzero" rx="13.501" ry="2.1" transform="rotate(-5.579 403.037 503.424)"/>
        <g transform="translate(284 44)">
            <g fill="#D7D7D7" fill-rule="nonzero">
                <path d="M189.3 412.2H18.1c-9.9 0-17.9-8-17.9-17.9V18.7C.2 8.8 8.2.8 18.1.8h171.2c9.9 0 17.9 8 17.9 17.9v375.6c0 9.9-8 17.9-17.9 17.9z"/>
                <path d="M6.2 33h195.6v337.6H6.2zM123.5 20.7H82.2c-.8 0-1.4-.6-1.4-1.4 0-.8.6-1.4 1.4-1.4h41.3c.8 0 1.4.6 1.4 1.4.1.8-.6 1.4-1.4 1.4z"/>
            </g>
            <g fill-rule="nonzero">
                <path fill="#FFF" d="M188 409.5H19.5c-9.9 0-17.9-8-17.9-17.9V20c0-9.9 8-17.9 17.9-17.9H188c9.9 0 17.9 8 17.9 17.9v371.5c-.1 9.9-8.1 18-17.9 18z"/>
                <path fill="url(#b)" d="M6.5 32h193v334.3H6.5z" transform="translate(1 2)"/>
                <path fill="#D7D7D7" d="M123.3 21.8H82.6c-.8 0-1.4-.6-1.4-1.4 0-.8.6-1.4 1.4-1.4h40.7c.8 0 1.4.6 1.4 1.4 0 .8-.7 1.4-1.4 1.4z"/>
            </g>
            <path fill="#F5FDFF" fill-rule="nonzero" d="M124.6 1.1L3.8 380 1.1 30.5C1 14.7 13.6 1.9 29.3 1.6c36.6-.5 95.3-1.2 95.3-.5z" opacity=".1"/>
            <circle cx="104" cy="388.2" r="14.2" fill="url(#c)" fill-rule="nonzero" opacity=".5"/>
            <path stroke="#FFF" stroke-width=".5" d="M182.9 118H25c-3.4 0-6.1-2.7-6.1-6.1V57.1c0-3.4 2.7-6.1 6.1-6.1h157.9c3.4 0 6.1 2.7 6.1 6.1v54.8c.1 3.4-2.7 6.1-6.1 6.1z" opacity=".5"/>
            <path stroke="#FFF" stroke-width=".462" d="M183.4 282.1H96.1c-3.1 0-5.7-2.5-5.7-5.7v-50.7c0-3.1 2.5-5.7 5.7-5.7h87.3c3.1 0 5.7 2.5 5.7 5.7v50.7c0 3.2-2.6 5.7-5.7 5.7z" opacity=".5"/>
            <path stroke="#FFF" stroke-width=".35" d="M182.2 357.7H26.6c-2.4 0-4.3-1.9-4.3-4.3V315c0-2.4 1.9-4.3 4.3-4.3h155.6c2.4 0 4.3 1.9 4.3 4.3v38.4c0 2.4-1.9 4.3-4.3 4.3z" opacity=".5"/>
            <g stroke="#FFF" stroke-dasharray="2.812" stroke-linecap="round" stroke-linejoin="round" stroke-width="1.406" opacity=".5">
                <path d="M22.3 130.4h79.1M115.2 130.4h37.5"/>
            </g>
            <path stroke="#FFF" stroke-dasharray="2.812" stroke-linecap="round" stroke-linejoin="round" stroke-width="1.406" d="M71.6 141.2h87.2M22.3 141.2h44.3M161 130.4h23.3M165 141.3h19.3" opacity=".5"/>
            <g stroke="#FFF" stroke-dasharray="2.812" stroke-linecap="round" stroke-linejoin="round" stroke-width="1.406" opacity=".5">
                <path d="M22.3 150.9h79.1M115.2 150.9h37.5"/>
            </g>
            <path stroke="#FFF" stroke-dasharray="2.812" stroke-linecap="round" stroke-linejoin="round" stroke-width="1.406" d="M71.6 161.7h87.2M22.3 161.7h44.3M161 150.9h23.3M165 161.8h19.3" opacity=".5"/>
            <g stroke="#FFF" stroke-dasharray="2.812" stroke-linecap="round" stroke-linejoin="round" stroke-width="1.406" opacity=".5">
                <path d="M22.3 171.4h86.1M115.2 171.4h37.5"/>
            </g>
            <path stroke="#FFF" stroke-dasharray="2.812" stroke-linecap="round" stroke-linejoin="round" stroke-width="1.406" d="M71.6 182.2h87.2M22.3 182.2h44.3M161 171.4h23.3M165 182.3h19.3" opacity=".5"/>
            <g stroke="#FFF" stroke-dasharray="2.812" stroke-linecap="round" stroke-linejoin="round" stroke-width="1.406" opacity=".5">
                <path d="M22.3 191.9h30.6M61.2 191.9h91.5"/>
            </g>
            <path stroke="#FFF" stroke-dasharray="2.812" stroke-linecap="round" stroke-linejoin="round" stroke-width="1.406" d="M71.6 202.7h87.2M22.3 202.7h44.3M161 191.9h23.3M165 202.8h19.3" opacity=".5"/>
            <g stroke="#FFF" stroke-dasharray="2.812" stroke-linecap="round" stroke-linejoin="round" stroke-width="1.406" opacity=".5">
                <path d="M22.3 212.4h79.1M115.2 212.4h37.5"/>
            </g>
            <path stroke="#FFF" stroke-dasharray="2.812" stroke-linecap="round" stroke-linejoin="round" stroke-width="1.406" d="M22.3 232.9h25.6M161 212.4h23.3M22.3 242.6h61.2M51.9 232.9h33.4M22.3 253.4h58" opacity=".5"/>
            <g stroke="#FFF" stroke-dasharray="2.812" stroke-linecap="round" stroke-linejoin="round" stroke-width="1.406" opacity=".5">
                <path d="M22.3 263.1H39M51.3 263.1h32.2"/>
            </g>
            <path stroke="#FFF" stroke-dasharray="2.812" stroke-linecap="round" stroke-linejoin="round" stroke-width="1.406" d="M22.3 273.9h60.9" opacity=".5"/>
            <g stroke="#FFF" stroke-dasharray="2.812" stroke-linecap="round" stroke-linejoin="round" stroke-width="1.406" opacity=".5">
                <path d="M22.3 290.4h79.1M115.2 290.4h37.5"/>
            </g>
            <path stroke="#FFF" stroke-dasharray="2.812" stroke-linecap="round" stroke-linejoin="round" stroke-width="1.406" d="M71.6 301.2h87.2M22.3 301.2h44.3M161 290.4h23.3M165 301.3h19.3" opacity=".5"/>
        </g>
        <g fill-rule="nonzero">
            <path fill="#153851" d="M130.1 160.4s-.9-8.5-10.6-6.7c-9.7 1.9-19 10.4-17.1 22 2 11.6-4.4 11.7-5.9 11.1 0 0 7.7 8.1 17.9 3.3s9.7-22.4 9.7-22.4l6-7.3zM153.8 155.9s10.4 5.8 2.5 26.3c-2.5 6.6-18.3-5.2-18.3-5.2l15.8-21.1z"/>
            <path fill="#FC9" d="M160.3 483.2s1.3 6 1.2 10.9c-.6 3.3 0 4.3 0 4.3l12.7-1.1s-5.6-2.8-5.2-15.8c.4-13.1-8.7 1.7-8.7 1.7z"/>
            <path fill="#FFF" d="M161.4 495.1s5.5 2 11 .5c6.4 3 10.9 4.1 16.7 4.9 5.8.7 4.8 5.5-5.2 4.9-10-.7-16.9-.2-19.1 0-2.2.2-5.8.5-5.9-1-.1-1.7.7-9.8 2.5-9.3z"/>
            <path fill="#FC9" d="M121.4 483.2s1.3 6 1.2 10.9c-.6 3.3 0 4.3 0 4.3l12.7-1.1s-5.6-2.8-5.2-15.8c.4-13.1-8.7 1.7-8.7 1.7z"/>
            <path fill="#FFF" d="M122.5 495.1s5.5 2 11 .5c6.4 3 10.9 4.1 16.7 4.9 5.8.7 4.8 5.5-5.2 4.9-10-.7-16.9-.2-19.1 0-2.2.2-5.8.5-5.9-1-.1-1.7.7-9.8 2.5-9.3z"/>
            <path fill="#10354C" d="M167.3 305.4s5.8 74.9 6.3 86c.5 11.1.8 24.2.3 31-.5 6.8-1.7 64-1.7 64s-10.4 4.8-15.2.4c0 0-2.8-71.4-5.2-82-2.4-10.6-11.6-55.4-11.6-55.4l10.9-55.2 16.2 11.2z"/>
            <path fill="#183F5B" d="M123.8 397.7c1.9-16-1.3-71.5-1.2-85.2.1-13.7 38.7-6.7 38.7-6.7s-12.4 71.1-13.9 82.8c-1.5 11.6-3.1 24.2-3.8 35.3-.7 11.1-9.8 64.2-9.8 64.2s-12.3 3.2-13.9-.8c-3.3-20.6 3.9-89.6 3.9-89.6z"/>
            <path fill="#0A1828" d="M398.8 489.9c-.3 1.5 2.5 5.4-1.2 8.7-3.8 3.3-12.3 6.8-6.6 6.9 5.7.1 11.1-1.2 14-2.6 2.9-1.4.6-3.7 4.2-4.8 4.7-1.5 4.7-1.8 2.4-6.9-3.3-7.1-12-6.1-12.8-1.3z"/>
            <path fill="#CCD6E7" d="M361.7 251.8c-2 5.1-2.4 10.7-1.2 16 2.4 10.6-.3 11.3-.3 11.3s-14.4 9.1-26.4 12.9c-8.6 2.7-15.9 2.2-15.7-7.3v-.1-1.7c.4-21.3-4-22.4-5.1-46.2-1.1-24.5 5.4-38.1 11.9-44 6.5-5.9 15.3-6.1 32-2.2 12.5 2.9 16.6 6.3 16.5 15.5 0 3.1-.5 6.8-1.3 11.4-2.2 11.7-7.1 25.7-10.4 34.4z"/>
            <path fill="#12374F" d="M331.5 199.4s-13 42.5-10.4 62.9l4.8 8.7 5.2-9.5s-4.2-40.7 3.9-61.4l-3.5-.7z"/>
            <path fill="#A3B4D8" d="M361.7 251.8c-2 5.1-2.4 10.7-1.2 16 2.4 10.6-.3 11.3-.3 11.3s-14.4 9.1-26.4 12.9l-11.2-1.1-4.5-3.5v-2.8-1.7c2.6.2 8.4.5 16.9-.4 6.6-.7 12.6-2.6 16.6-4.1 2.9-1.1 4.6-4.1 4.1-7.2-.7-4.2-1.6-10.2-1.5-14.9 0-4.7 2.2-12.6 4-18.3 1.4-4.4 1.8-9 1.5-13.6-.6-7.9 0-15.4 0-15.4l8.9-4.8 4.9 1.8c0 3.1-.5 6.8-1.3 11.4-2.3 11.7-7.2 25.7-10.5 34.4z"/>
            <path fill="#F4D5B5" d="M361.8 297c1 .2 3.6-4.4 3.6-4.4l-1.1-1.5c-.6-.8-1.5-1.4-2.5-1.7l-.2-.1c-.9-.3-1.9 0-2.4.8-.8 1.1-1.9 2.4-3.3 2.3h-.1c-1.1.1 5 4.4 6 4.6z"/>
            <path fill="#153851" d="M321.4 149s-1.1 3.1.6 5.6l6.9-9.3h-4.8l-2.7 3.7z"/>
            <path fill="#FFE1BD" d="M358.7 161.3c-.3 12-10.6 18.9-10.6 18.9l.7 10.9-7 4.5-4.8 3.1-2.7-5.7-.4-7c-.1-1.6-1.3-3-2.9-3.3-1.8-.4-4.3-1.4-6.8-4.1-.1-.2-.3-.3-.4-.5-4.5-6.2-6.2-29.8 9.3-36.5 15.9-7.1 25.9 7.7 25.6 19.7z"/>
            <path fill="#E8C5A0" d="M341.3 189.1l.5 6.5-4.8 3.1-2.7-5.7-.4-7c-.1-1.6-1.3-3-2.9-3.3-1.8-.4-4.3-1.4-6.8-4.1-.1-.2-.3-.3-.4-.5.3.2 4.1 2.4 9.8 3 4.1.4 7.4 3.8 7.7 8z"/>
            <path fill="#153851" d="M342 165c.6.2 1.2-.7 1.2-.7s3.4-7.6 4.5-8.7c2.1-2.1 6.9-1.9 7.3 4.6.3 5-5.6 15.7-7.4 18.9-.3.5-.2 1.2.3 1.5.2.1.4.2.7.2h.1c.3 0 .6-.1.8-.3 3.8-3.4 20.7-19.5 7.3-34.8 0 0-10.6.7-12.3 5.8-1.6 5.2-2.8 12.1-2.8 12.1s-.4 1.1.3 1.4z"/>
            <path fill="#153851" d="M321.4 149s9.3-7.3 23.5 1.6l11.6-3s.5-.2.2-1.9-1.5-18.8-21.8-14.9c-11.7 2.2-18.8 10.3-13.5 18.2z"/>
            <path fill="#12374F" d="M330.6 195.8l.1.6c.1 1.1.4 2.1.8 3.1l3.5.7 3.1-2.3-3.5-4.1-.5.1c-1.4.3-2.5 1-3.5 1.9z"/>
            <path fill="#A3B4D8" d="M348.7 186s1.7.9 3.4 3.5c0 0-2.3 1-4.3 2.3-1.8 1.1-10.6 7.3-10.6 7.3l-2.6-5.3c-.1 0 9.1-6.4 14.1-7.8zM334.5 193.8s-3.1 1.1-4 3.4c0 0-1.6-3 .4-8.4 0 0 1.7-1.6 3-2.2l.6 7.2z"/>
            <path fill="#E5BB98" d="M359 289.5s-1.6 2.1-2.1 2.3c-.5.3-.6-.3-.4-.7.2-.4 2.4-2.2 2.5-1.6z"/>
            <path fill="#153851" d="M348.5 180.8c.4 0 .6-.1.9-.3 3.8-3.4 20.7-19.5 7.3-34.8 0 0 .7 2.6.4 4.9 0 0 8.5 13.8-8.6 30.2z"/>
            <path fill="#183F5B" d="M378.5 339.7s10-33.2-18.4-60.5c0 0-15.3 6.8-27.5 7.7-9.6.6-14.5-.3-14.5-.3s-.8 29.5-.8 45.4l61.2 7.7zM314.6 394.8c-.6-14.8 10.4-13.2 16.8-2.4 20.6 34.6-.1 77.9-2.3 103-2.4-4-7-5.4-8.1-5.3-1.8.1-2.7 1.5-2.7 1.5.4-30.7-3-80.9-3.7-96.8z"/>
            <path fill="#183F5B" d="M330.9 396.4c-1.9 6.1-17.8 13.1-16.1-9 .7-9.8 2.7-63.8 3.1-69 .4-5.2 1.2-12.8 3.8-13.8 12.6-4.7 30.2 11.1 26.9 30.6-2.3 13.2-13.9 48.7-17.7 61.2z"/>
            <path fill="#0A1828" d="M318.4 492c-.7 1.3-3.8 4.3-8.2 6.2-4.4 2-13.7 2.9-8.5 4.6 5.2 1.7 11.2.7 14.2.2 3-.5 6-.6 9.6-.6 4.7 0 4.8-.3 4.1-5.7-.9-7.3-9.1-8.9-11.2-4.7z"/>
            <path fill="#183F5B" d="M367.4 398.2c-5-14 6-15.7 15.3-7.3 29.9 27 22.9 74.5 28.2 99.1-3 2-7.7 2.8-9.4 2.7-1.8-.1-2.6-1.3-2.6-1.3-8.6-29.5-26.1-78.2-31.5-93.2z"/>
            <path fill="#183F5B" d="M383.7 394.2c.6 6.3-11.6 18.8-18.3-2.3-3-9.3-21.5-60.1-23.1-65.1-1.6-5-3.7-12.3-1.7-14.2 9.9-9.1 32.2-1.1 36.5 18.3 2.8 12.9 5.4 50.2 6.6 63.3z"/>
            <path fill="#FFF" d="M156.4 218l18.5 5s-2.1 15.6 0 20.2H162s-2.2 6.7-3.4 9.8c-1.2 3.1 8.7 44.3 10.3 54.1 0 0-5.3 9.1-47.7 4.4 0 0-1.6-9.9 3.9-25 4.8-13.3-16.6-47-16.6-47s3.5-24.4 24.2-28.7c12.2-2.6 12.3 4.1 23.7 7.2z"/>
            <path fill="#FFE1BD" d="M153 159.1s9.3 27.3 4.4 36.2c-3.9 7.1-12.4 6.2-12.4 6.2V218s-.9.9-2.4.9c-2.7.2-9.9-4.5-9.9-4.5v-38.1l20.3-17.2zM107.5 248.3s-8.8 40.5-5.6 43.1c3.2 2.6 38.1 2.6 41.6 3.3 3.5.7 20.6 3.1 28.3-3.1 1-.8-9.8 1.2-11-1.7-1.2-2.9-4.8-3.9-4.8-3.9l-11.8 3.5s-26.7-5-28.5-6.7c-1.8-1.6 7.8-34.4 7.8-34.4l-16-.1z"/>
            <path fill="#F2F2F2" d="M106 247.4s6.1-27.6 15.3-31.3c9.2-3.7 13.2 10 9.4 23.1-3.9 13.1-4.9 17.9-4.9 17.9s-12.7 0-19.8-9.7z"/>
            <path fill="#FFE1BD" d="M386 236.3s7.7 51.6 3.5 54.8c-4.2 3.1-48.2 5.5-52.6 6.3-4.4.7-22.3 5.5-31.6-2.7-1.2-1.1 9.6-1.6 11.2-5.2 1.6-3.6 6.3-4.7 6.3-4.7l13.5 6s29.1-11.5 37-12.8c-3.6-4.9-8.4-38.6-8.4-38.6l21.1-3.1z"/>
            <path fill="#CCD6E7" d="M388.5 238.4s-6-37.8-17.4-42.9c-11.4-5.1-19.5 11.2-15.3 28 4.2 16.8 5.3 22.9 5.3 22.9s17.1 1.7 27.4-8z"/>
            <path fill="#7F1E00" d="M322.4 295.9H159.6c-4.1 0-7.4-3.4-7.4-7.6V220c0-4.2 3.3-7.6 7.4-7.6h162.9c4.1 0 7.4 3.4 7.4 7.6v68.3c-.1 4.2-3.4 7.6-7.5 7.6z" opacity=".1"/>
            <path fill="#F0F7EE" d="M329.818 209.407v83h-174.3v-83z"/>
            <path fill="#DDAFDD" d="M160.6 214.4h164.2v72.9H160.6z"/>
            <path fill="#AD7DA0" d="M261.4 250.9c0 13.1-3 25.5-8.4 36.5h-92.4v-72.9H253c5.4 11 8.4 23.3 8.4 36.4z"/>
            <path fill="#DDAFDD" d="M234.6 250.9c0 13.9-5 26.6-13.4 36.5h-60.7v-72.9h60.7c8.4 9.8 13.4 22.5 13.4 36.4z"/>
            <path fill="#AD7DA0" d="M210.8 250.9c0 18-14.6 32.5-32.5 32.5-6.5 0-12.5-1.9-17.6-5.2v-54.7c5.1-3.3 11.1-5.2 17.6-5.2 17.9.1 32.5 14.6 32.5 32.6z"/>
            <path fill="#875778" d="M241.7 270.5s2.1-3.2 3.9-6.7c1.8-3.5.9-9.1.9-9.1l1.2-4.8c1.6-9-4.4-19.4-14.1-20.8-9.7-1.4-16.2 3.9-18.8 7.9-2.6 3.9-2.7 9.7-2.7 9.7s-4.6-.2-2.3 8c1 3.4 3 5.1 5 5.9v2.6L211 265s-2.5-.9-5.5.5-3.9 4.4-3.9 4.4c-5.2 2.1-9.4 7.2-10.8 9h-30.1v8.6H252c-.5-12.1-10.3-17-10.3-17z"/>
            <path fill="#DDAFDD" d="M189.9 240.9v-3h-17.2v3h4.8c2 0 3.8 1.3 4.4 3.1h-9.2v3h9.2c-.6 1.8-2.3 3.1-4.4 3.1h-4.8v3h1c1.5 0 2.9.4 4.1 1.1 2.3 1.4 5.5 4.1 7.4 9.7h3.1c-1.9-6-5.1-9.5-7.8-11.4 2.2-1 3.9-3 4.4-5.5h5v-3h-5c-.2-1.2-.7-2.2-1.4-3.1h6.4z"/>
            <g fill="#AD7DA0">
                <path d="M274.8 264.2h43v8.5h-43zM274.8 276.4h43v4.7h-43zM264.6 220.7h53.2v4.7h-53.2z"/>
            </g>
            <path fill="#875778" d="M303.1 237.4v-2.7H287.7v2.7h4.3c1.8 0 3.4 1.2 3.9 2.8h-8.2v2.7h8.2c-.6 1.6-2.1 2.8-3.9 2.8h-4.3v2.7h.9c1.3 0 2.6.3 3.7 1 2 1.2 4.9 3.7 6.7 8.7h2.8c-1.7-5.4-4.6-8.5-7-10.2 2-.9 3.5-2.7 3.9-4.9h4.5v-2.7h-4.5c-.2-1-.7-2-1.3-2.8h5.7v-.1z"/>
            <path fill="#FFE1BD" d="M199.7 291.4s-3.9-5-6.5-5.8c-2.6-.8-5.4-.9-6 .5-.7 1.3-1.5 7.2-.9 8.2.5.9 11.3 2.6 13.4-2.9zM297.5 208s4.2 5.9 7 6.9c2.9 1.1 6 1.3 6.8-.2.8-1.5 2.1-8.1 1.5-9.2-.6-1-12.6-3.5-15.3 2.5z"/>
            <path fill="#1C4D66" d="M118.8 486.1c.1.5.4.9.3 1.3 0 .3-.2.5-.2.8-.1.9 1 1.4 1.9 1.5 2.9.6 5.9.6 8.9.5 1.4 0 2.9-.1 4.1-.8.5-.3.9-.7 1.1-1.2.2-.5.1-1.2-.4-1.5.5-.2.5-1 .1-1.4-.4-.4-1-.4-1.6-.3-2.7.1-5.3.5-8 .6-1.3 0-2.6 0-3.9-.2-.9-.2-2.7-.9-2.3.7zM156.4 484.6c.1.5.4.9.3 1.3 0 .3-.2.5-.2.8-.1.9 1 1.4 1.9 1.5 2.9.6 5.9.6 8.9.5 1.4 0 2.9-.1 4.1-.8.5-.3.9-.7 1.1-1.2.2-.5.1-1.2-.4-1.5.5-.2.5-1 .1-1.4-.4-.4-1-.4-1.6-.3-2.7.1-5.3.5-8 .6-1.3 0-2.6 0-3.9-.2-.8-.2-2.6-.9-2.3.7z"/>
            <path fill="#153851" d="M154.5 163.8s-7.1 15.2-13.8 18.1c0 0-2-2.8-3.8-1.2-1.8 1.6.8 7.4 2.6 8 1.8.6-3.7 7.8-6.8 8.2-3.1.4-14.9-14.5-12.5-26.1 2.4-11.6 8.4-13 8.4-13s8.6-9.2 25.7-1.6l.2 7.6z"/>
        </g>
        <g stroke="#FFF" stroke-width="2">
            <path d="M504.8 338h1"/>
            <path stroke-dasharray="1.9294,5.7881,1.9294,5.7881" d="M511.6 338h12.5"/>
            <path stroke-dasharray="1.9294,5.7881,1.9294,5.7881,1.9294,5.7881" d="M527 338h89.7"/>
            <path d="M619.6 338h1M504.8 347.2h1"/>
            <path stroke-dasharray="1.9294,5.7881,1.9294,5.7881" d="M511.6 347.2h12.5"/>
            <path stroke-dasharray="1.9294,5.7881,1.9294,5.7881,1.9294,5.7881" d="M527 347.2h89.7"/>
            <path d="M619.6 347.2h1"/>
            <g>
                <path d="M504.8 356.5h1"/>
                <path stroke-dasharray="1.9294,5.7881,1.9294,5.7881" d="M511.6 356.5h12.5"/>
                <path stroke-dasharray="1.9294,5.7881,1.9294,5.7881,1.9294,5.7881" d="M527 356.5h89.7"/>
                <path d="M619.6 356.5h1"/>
            </g>
            <g>
                <path d="M504.8 365.8h1"/>
                <path stroke-dasharray="1.9294,5.7881,1.9294,5.7881" d="M511.6 365.8h12.5"/>
                <path stroke-dasharray="1.9294,5.7881,1.9294,5.7881,1.9294,5.7881" d="M527 365.8h89.7"/>
                <path d="M619.6 365.8h1"/>
            </g>
            <g>
                <path d="M504.8 375.1h1"/>
                <path stroke-dasharray="1.9294,5.7881,1.9294,5.7881" d="M511.6 375.1h12.5"/>
                <path stroke-dasharray="1.9294,5.7881,1.9294,5.7881,1.9294,5.7881" d="M527 375.1h89.7"/>
                <path d="M619.6 375.1h1"/>
            </g>
            <g>
                <path d="M504.8 384.4h1"/>
                <path stroke-dasharray="1.9294,5.7881,1.9294,5.7881" d="M511.6 384.4h12.5"/>
                <path stroke-dasharray="1.9294,5.7881,1.9294,5.7881,1.9294,5.7881" d="M527 384.4h89.7"/>
                <path d="M619.6 384.4h1"/>
            </g>
            <g>
                <path d="M504.8 393.7h1"/>
                <path stroke-dasharray="1.9294,5.7881,1.9294,5.7881" d="M511.6 393.7h12.5"/>
                <path stroke-dasharray="1.9294,5.7881,1.9294,5.7881,1.9294,5.7881" d="M527 393.7h89.7"/>
                <path d="M619.6 393.7h1"/>
            </g>
        </g>
        <ellipse cx="488.5" cy="477.3" fill="#461E59" fill-rule="nonzero" rx="12.7" ry="2.4"/>
        <ellipse cx="449" cy="471.9" fill="#461E59" fill-rule="nonzero" rx="12.7" ry="2.4"/>
        <g transform="translate(415 421)">
            <circle cx="25.6" cy="25.6" r="25.3" fill="#FFA100" fill-rule="nonzero"/>
            <circle cx="25.6" cy="25.6" r="21.8" fill="#FFA100" fill-rule="nonzero"/>
            <path fill="#FFC835" fill-rule="nonzero" d="M25.6.3C11.6.3.3 11.6.3 25.6s11.3 25.3 25.3 25.3 25.3-11.3 25.3-25.3S39.6.3 25.6.3zm0 47.2c-12.1 0-21.8-9.8-21.8-21.8 0-12.1 9.8-21.8 21.8-21.8s21.8 9.8 21.8 21.8c.1 12-9.7 21.8-21.8 21.8z"/>
            <circle cx="25.6" cy="25.6" r="18.8" stroke="#FFC835" stroke-width="1.254"/>
            <circle cx="25.6" cy="25.6" r="16.8" stroke="#FFC835" stroke-width=".454"/>
            <path fill="#FFC835" fill-rule="nonzero" d="M33.7 15.2H18.8l-1.2 1.9h5.5s2.3.3 2.6 2.6h-7.3L17.2 22h9.3s-1.2 4.9-8.6 4l.1 2.2 8.5 10h4l-8.6-10.5s7.2.3 7.8-5.6h3.1l1.2-2.2h-4.3s-.3-2.4-1.5-3h4.4l1.1-1.7z"/>
            <path fill="#FFA100" fill-rule="nonzero" d="M48.6 28.8c.1.8 1.4.4 1.2-.5 0-.2-.1-.3-.3-.5-.5-.6-1.4.4-.9 1zM47.9 33.8c.9 0 .9-1.4 0-1.4s-.9 1.4 0 1.4zM46.1 38.4c.9 0 .9-1.4 0-1.4s-.8 1.4 0 1.4zM43.8 41.9l.1-.1c.6-.6-.3-1.6-1-1l-.1.1c-.6.7.3 1.7 1 1zM39.6 45.6c.9 0 .9-1.4 0-1.4s-.9 1.4 0 1.4zM34.6 48.4c.9 0 .9-1.4 0-1.4s-.9 1.4 0 1.4zM29.2 49.8c.9 0 .9-1.4 0-1.4s-.9 1.4 0 1.4zM23.3 49.7l.1-.1c.6-.6-.3-1.6-1-1l-.1.1c-.6.7.4 1.6 1 1zM18 48.5c.9 0 .9-1.4 0-1.4s-.9 1.4 0 1.4zM13.7 46.6c.9 0 .9-1.4 0-1.4s-.9 1.4 0 1.4zM9.9 43.9c.9 0 .9-1.4 0-1.4s-.8 1.4 0 1.4zM6.3 40.3c.9 0 .9-1.4 0-1.4s-.8 1.4 0 1.4zM4.5 35l-.1-.1c-.6-.6-1.6.3-1 1l.1.1c.6.6 1.6-.3 1-1zM2.6 31.4c.9 0 .9-1.4 0-1.4s-.9 1.4 0 1.4zM2.1 26.2c.9 0 .9-1.4 0-1.4s-.9 1.4 0 1.4zM2.5 21.5h.1c.9 0 .9-1.4 0-1.4h-.1c-.9 0-.9 1.4 0 1.4zM4.3 16.5l.1-.1c.6-.6-.3-1.6-1-1l-.1.1c-.6.6.4 1.6 1 1zM6.7 12.2c.9 0 .9-1.4 0-1.4s-.9 1.4 0 1.4zM10 8.4c.9 0 .9-1.4 0-1.4s-.8 1.4 0 1.4zM14 5.8c.9 0 .9-1.4 0-1.4s-.9 1.4 0 1.4zM19.1 3.7c.9 0 .9-1.4 0-1.4s-.8 1.4 0 1.4zM23.9 3c.9 0 .9-1.4 0-1.4s-.8 1.4 0 1.4zM29.2 3.2c.9 0 .9-1.4 0-1.4s-.9 1.4 0 1.4zM34.5 4.7c.9 0 .9-1.4 0-1.4s-.9 1.4 0 1.4zM39.6 7.5h.1c.9 0 .9-1.4 0-1.4h-.1c-.9 0-.9 1.4 0 1.4zM43.2 10.7v.1c0 .9 1.4.9 1.4 0v-.1c0-.9-1.4-.9-1.4 0zM46.9 16c.9 0 .9-1.4 0-1.4s-.9 1.4 0 1.4zM48.5 22c.9 0 .9-1.4 0-1.4s-.9 1.4 0 1.4z"/>
        </g>
        <g transform="translate(439 406)">
            <ellipse cx="33.72" cy="37.595" fill="#FFA100" fill-rule="nonzero" rx="36.199" ry="32.099" transform="rotate(-88.081 33.72 37.595)"/>
            <ellipse cx="37.83" cy="37.423" fill="#FFA100" fill-rule="nonzero" rx="36.199" ry="27.899" transform="rotate(-88.081 37.83 37.423)"/>
            <ellipse cx="37.829" cy="37.424" stroke="#FFC835" stroke-width="1.653" rx="26.999" ry="20.799" transform="rotate(-88.082 37.83 37.424)"/>
            <ellipse cx="37.829" cy="37.425" stroke="#FFC835" stroke-width=".62" rx="23.599" ry="18.199" transform="rotate(-88.083 37.83 37.425)"/>
            <path fill="#FFC835" fill-rule="nonzero" d="M39.1 1.3C23.7.8 10.7 16.5 10 36.5c-.7 20 11.3 36.6 26.7 37.1 15.4.5 28.4-15.2 29.1-35.2.6-20-11.3-36.6-26.7-37.1zm23 36.9c-.6 17.4-11.9 31.1-25.3 30.7C23.4 68.5 13 54 13.6 36.6c.6-17.4 11.9-31.1 25.3-30.7 13.4.5 23.8 14.9 23.2 32.3z"/>
            <path fill="#FFC835" fill-rule="nonzero" d="M48 23.3H31.2l-1.3 2.5h6.2s2.6.5 2.9 3.4h-8.2l-1.3 3.1H40s-1.4 6.4-9.7 5.2l.1 2.9L40 53.5h4.5l-9.7-13.8s8.1.4 8.8-7.4h3.5l1.4-2.9h-4.8s-.3-3.2-1.7-3.9h4.9l1.1-2.2z"/>
            <path fill="#FFA100" fill-rule="nonzero" d="M45.1 5.5c.8 0 .8-1.2 0-1.2s-.8 1.2 0 1.2zM50.9 8.2h.1c.8 0 .8-1.2 0-1.2h-.1c-.8 0-.8 1.2 0 1.2zM54.6 11.7h.1c.8 0 .8-1.2 0-1.2h-.1c-.8 0-.8 1.2 0 1.2zM57.6 15.2v.1c0 .8 1.2.8 1.2 0v-.1c.1-.8-1.2-.8-1.2 0zM60.3 20.3c.8 0 .8-1.2 0-1.2s-.8 1.2 0 1.2zM61.7 25.2l.1.1c.6.6 1.4-.3.9-.9l-.1-.1c-.5-.5-1.4.3-.9.9zM63.3 31.5c.8 0 .8-1.2 0-1.2s-.8 1.2 0 1.2zM64.1 38.5c.8 0 .8-1.2 0-1.2s-.8 1.2 0 1.2zM63 45.8c.8 0 .8-1.2 0-1.2s-.8 1.2 0 1.2zM61.4 51c-.4-.1-.7.2-.8.6-.1.3.1.7.4.8.4.1.6-.1.8-.4v-.1c-.1.1-.2.2-.3.4 0 0-.1 0-.1.1.3 0 .6-.3.6-.6.1-.5-.2-.7-.6-.8zM57.8 57.9v.1c0 .8 1.2.8 1.2 0v-.1c0-.8-1.2-.8-1.2 0zM53.7 64.9c.8 0 .8-1.2 0-1.2s-.8 1.2 0 1.2zM47.3 69.4c.8 0 .8-1.2 0-1.2s-.8 1.2 0 1.2zM40.2 71.5c.8 0 .8-1.2 0-1.2s-.8 1.2 0 1.2zM32.5 71.1h.1c.8 0 .8-1.2 0-1.2h-.1c-.8 0-.8 1.2 0 1.2zM26.7 69.1c.8 0 .8-1.2 0-1.2s-.8 1.2 0 1.2zM21.1 64.5c.8 0 .8-1.2 0-1.2s-.8 1.2 0 1.2zM16.7 58.5c.8 0 .8-1.2 0-1.2s-.8 1.2 0 1.2zM13.5 51.9c.8 0 .8-1.2 0-1.2s-.8 1.2 0 1.2zM12 44.5c.8 0 .8-1.2 0-1.2s-.8 1.2 0 1.2zM11.7 36.6c.8 0 .8-1.2 0-1.2s-.8 1.2 0 1.2zM13 28.2c.8 0 .8-1.2 0-1.2s-.8 1.2 0 1.2zM15.1 22c.8 0 .8-1.2 0-1.2s-.8 1.2 0 1.2zM18.2 15.9c.8 0 .8-1.2 0-1.2s-.8 1.2 0 1.2zM22.7 11c.8 0 .8-1.2 0-1.2s-.8 1.2 0 1.2zM27.7 7.3c.8 0 .8-1.2 0-1.2s-.8 1.2 0 1.2zM33.3 5.3c.8 0 .8-1.2 0-1.2s-.8 1.2 0 1.2zM39.1 4.6c.8 0 .8-1.2 0-1.2s-.8 1.2 0 1.2z"/>
        </g>
        <circle cx="562.7" cy="18.6" r="18" fill="#FFBE53" fill-rule="nonzero"/>
        <circle cx="25.5" cy="145.2" r="25.1" fill="#FFF" fill-rule="nonzero"/>
        <circle cx="465.9" cy="552.6" r="18.2" fill="#A31B37" fill-rule="nonzero"/>
    </g>
</svg>
