<svg id="SvgjsSvg1001" width="288" height="288" xmlns="http://www.w3.org/2000/svg" version="1.1" xmlns:xlink="http://www.w3.org/1999/xlink" xmlns:svgjs="http://svgjs.com/svgjs"><defs id="SvgjsDefs1002"></defs><g id="SvgjsG1008" transform="matrix(1,0,0,1,0,0)"><svg xmlns="http://www.w3.org/2000/svg" enable-background="new 0 0 1920 1000" viewBox="0 0 1920 1000" width="288" height="288"><clipPath id="a"><path d="m-82.2 543.8h2002.3v472.9h-2002.3z" fill="#000000" class="color000 svgShape"></path></clipPath><linearGradient id="b" x1="570.237" x2="1963.289" y1="775.595" y2="775.595" gradientUnits="userSpaceOnUse"><stop offset="0" stop-color="#6a3ec8" class="stopColorf02b81 svgShape"></stop><stop offset="1" stop-color="#e95bf0" class="stopColorf08a5b svgShape"></stop></linearGradient><linearGradient id="c" x1="87.286" x2="2035.273" y1="895.384" y2="895.384" gradientUnits="userSpaceOnUse"><stop offset="0" stop-color="#5721b1" class="stopColorff4c8e svgShape"></stop><stop offset="1" stop-color="#dda5ff" class="stopColorffab7f svgShape"></stop></linearGradient><path fill="url(#b)" d="m570.2 870.9c129.2-102.3 299.6-137 464.1-145.7 164.6-8.7 330.3 5.4 494-13.8 126.6-14.8 250.8-49.6 366.6-102.6 16.8-7.7 37.2-15.6 52.8-5.6 17 10.9 16.7 35.5 14.3 55.6-8 68.4-19.7 144-73.3 187.2-32.6 26.2-75.2 35.6-116.3 43.5-284.4 54.4-575.4 73.9-864.6 57.9-116.1-6.6-235.8-19.9-337.6-76.5z" clip-path="url(#a)"></path><path fill="url(#c)" d="m1245.5 845.7c212.2-21.9 411.9-126 625.1-129.2 37.4-.6 77.2 2.8 107.4 25 48.3 35.5 54.7 103.9 56.8 163.8 1.5 42.5 1.2 90-28.1 120.9-28.6 30.1-74.7 33.6-116.2 34.3-309.3 5.4-618.3-33.3-927.5-24.6-287.6 8.1-599.8 81.8-875.7.4 74.7-111.5 223.2-200.7 355.7-222.8s268-7.2 401.2 9.9c133.2 17 267.7 36.1 401.3 22.3z" clip-path="url(#a)"></path></svg></g></svg>